<svg width="254" height="186" viewBox="0 0 254 186" fill="none" xmlns="http://www.w3.org/2000/svg">
<path d="M26.7138 0.242783C22.86 0.536102 22.7724 0.661804 22.7724 8.33011V14.9089L17.4297 15.2022C14.4955 15.3699 11.8241 15.7051 11.5176 15.9565C11.0797 16.2917 10.9483 18.5126 10.9483 25.5524V34.7292H6.43759C3.06552 34.7292 1.70793 34.8968 0.963448 35.3996L0 36.0282V110.365V184.701L0.963448 185.33C1.83931 185.916 14.5393 186 127 186C239.461 186 252.161 185.916 253.037 185.33L254 184.701V110.365V36.0282L253.037 35.3996C252.292 34.8968 250.934 34.7292 247.562 34.7292H243.052V25.5524C243.052 18.5126 242.92 16.2917 242.482 15.9565C242.176 15.7051 239.504 15.3699 236.57 15.2022L231.228 14.9089V8.33011C231.228 2.50555 231.14 1.6675 230.439 1.08084C229.782 0.494202 228.293 0.326584 223.082 0.117065C199.916 -0.84671 172.632 5.98352 148.678 18.7221C141.758 22.4096 133.744 27.2704 129.54 30.4131L127 32.2569L124.504 30.4131C116.752 24.7143 102.695 16.9203 92.1845 12.4785C70.1566 3.13411 47.4717 -1.09813 26.7138 0.242783ZM45.6324 4.97784C63.9817 6.65398 84.3455 12.8557 102.213 22.2001C108.3 25.3848 120.65 33.0111 123.278 35.1901L124.81 36.4891V102.235C124.81 138.398 124.723 167.982 124.635 167.982C124.504 167.982 122.927 167.395 121.088 166.683C114.081 164.001 100.637 161.319 86.7104 159.81C73.441 158.386 48.1724 157.087 33.6331 157.087H27.5897V80.8228V4.55881H34.29C37.9248 4.55881 43.0486 4.76833 45.6324 4.97784ZM226.41 80.739V156.961L212.966 157.254C174.472 158.051 146.97 161.319 132.868 166.724C131.073 167.395 129.496 167.982 129.365 167.982C129.277 167.982 129.19 138.356 129.19 102.152V36.3215L130.372 35.3996C135.627 31.4607 144.649 25.9295 152.794 21.6973C169.654 12.9395 190.5 6.57018 207.36 5.01974C209.55 4.85214 214.718 4.64262 218.878 4.60072L226.41 4.55881V80.739ZM22.7724 90.0415V160.439L23.7797 161.026C24.5241 161.487 28.1152 161.654 41.1655 161.864C63.8503 162.199 81.4114 163.372 97.0455 165.719C104.14 166.724 114.212 168.903 115.57 169.658C116.008 169.909 98.1841 170.077 65.821 170.077H15.3276V95.1537C15.3276 53.9209 15.459 20.063 15.6341 19.9373C15.7655 19.7697 17.4734 19.644 19.3566 19.644H22.7724V90.0415ZM238.585 94.9442L238.672 170.077H188.223C155.86 170.077 137.992 169.909 138.43 169.658C139.788 168.903 149.86 166.724 156.954 165.719C172.589 163.372 190.15 162.199 212.834 161.864C225.885 161.654 229.476 161.487 230.264 161.026L231.228 160.439V89.9996V19.6021L234.862 19.7278L238.453 19.8535L238.585 94.9442ZM11.0359 106.468L11.1672 173.597L12.2621 174.141C13.8824 174.938 240.118 174.938 241.738 174.141L242.833 173.597L242.964 106.468L243.052 39.3385H246.117H249.183V110.365V181.391H127H4.81724V110.365V39.3385H7.88276H10.9483L11.0359 106.468Z" fill="black"/>
<path d="M40.3767 26.8515C39.676 27.522 39.7198 29.4914 40.4205 30.0362C40.727 30.2876 43.6612 31 46.9019 31.5866C69.6305 35.7769 91.4395 43.8224 107.38 53.8373C112.635 57.1895 114.737 57.3152 114.737 54.382C114.737 52.9992 113.117 51.784 105.409 47.3841C89.9067 38.5007 68.4043 30.9162 48.0405 27.2287C42.6101 26.223 41.1212 26.1392 40.3767 26.8515Z" fill="black"/>
<path d="M40.6398 50.2753C40.1143 50.5267 39.8516 51.1972 39.8516 52.161C39.8516 53.9628 40.0267 54.0466 47.5154 55.4713C69.3681 59.6616 93.8047 68.1261 108.256 76.5068C112.066 78.7276 112.504 78.8533 113.687 78.0991C114.738 77.4705 115.044 76.0458 114.387 75.1239C113.862 74.3278 108.432 71.3107 101.687 68.0842C86.8854 61.0025 66.434 54.4656 47.6905 50.862C41.4281 49.6887 41.6471 49.6887 40.6398 50.2753Z" fill="black"/>
<path d="M40.4205 75.8363C39.676 76.5487 39.7198 78.5181 40.4205 79.1048C40.7708 79.3562 44.0553 79.9428 47.7777 80.3619C64.025 82.3732 80.097 86.0188 93.0598 90.6701C98.1398 92.4719 106.46 96.1594 109.526 98.0031C111.935 99.4279 113.029 99.5536 114.037 98.5898C115.394 97.2908 114.913 95.9918 112.46 94.4833C102.256 88.2816 84.345 82.2475 64.8132 78.56C50.9746 75.9201 41.3839 74.8306 40.4205 75.8363Z" fill="black"/>
<path d="M40.5962 101.02C40.0269 101.439 39.8079 102.026 39.9393 103.031C40.1145 104.875 40.3772 104.959 49.4424 105.546C69.3683 106.803 91.7027 111.119 107.6 116.734C113.074 118.661 115.307 118.284 114.607 115.519C114.256 114.22 112.68 113.549 104.009 110.867C86.36 105.378 66.6531 101.942 45.9827 100.727C42.4355 100.517 41.2093 100.601 40.5962 101.02Z" fill="black"/>
<path d="M40.4212 123.606C39.6329 124.402 39.7205 126.288 40.5964 126.958C41.1219 127.419 43.7933 127.629 51.1943 127.838C76.9447 128.551 98.0967 131.693 108.651 136.386C112.461 138.105 113.862 138.105 114.475 136.512C115.132 134.71 114.519 134.082 110.665 132.364C99.5857 127.377 77.1636 123.983 50.8002 123.313C42.9612 123.103 40.8153 123.145 40.4212 123.606Z" fill="black"/>
<path d="M204.076 27.5639C183.274 31.7123 163.743 38.6683 148.59 47.3841C140.883 51.784 139.262 52.9992 139.262 54.382C139.262 57.3152 141.364 57.1895 146.619 53.8373C162.648 43.7386 184.063 35.8607 207.098 31.5866C210.338 31 213.273 30.2876 213.579 30.0362C214.28 29.4914 214.324 27.522 213.623 26.8515C212.835 26.0973 210.645 26.2649 204.076 27.5639Z" fill="black"/>
<path d="M205.389 51.0715C186.252 54.8847 166.895 61.0863 152.312 68.0842C145.568 71.3107 140.138 74.3278 139.612 75.1239C138.955 76.0458 139.262 77.4705 140.313 78.0991C141.495 78.8533 141.933 78.7276 145.743 76.5068C160.195 68.1261 184.588 59.6616 206.484 55.4713C213.973 54.0466 214.148 53.9628 214.148 52.1609C214.148 51.1134 213.885 50.5686 213.316 50.2334C212.177 49.6887 212.265 49.6887 205.389 51.0715Z" fill="black"/>
<path d="M207.579 75.6687C206.966 75.7525 204.339 76.0877 201.667 76.4649C178.851 79.44 153.889 86.9407 141.583 94.4833C139.087 95.9918 138.605 97.2908 139.963 98.5898C140.97 99.5536 142.065 99.4279 144.473 98.0031C147.539 96.1594 155.86 92.4719 160.94 90.6701C173.902 86.0188 189.974 82.3732 206.222 80.3619C209.944 79.9428 213.229 79.3562 213.579 79.1048C214.28 78.5181 214.323 76.5487 213.623 75.8782C213.141 75.4173 209.988 75.2916 207.579 75.6687Z" fill="black"/>
<path d="M203.638 100.978C185.333 102.361 165.757 105.965 150.167 110.784C141.277 113.549 139.744 114.22 139.394 115.519C138.693 118.242 140.883 118.661 146.05 116.86C156.867 113.046 172.545 109.359 185.902 107.473C194.091 106.342 206.397 105.127 210.12 105.127C213.273 105.127 214.149 104.624 214.149 102.822C214.149 100.392 213.273 100.266 203.638 100.978Z" fill="black"/>
<path d="M194.003 123.606C173.596 124.779 155.816 127.587 146.313 131.106C139.875 133.537 138.474 134.752 139.7 136.931C140.357 138.188 141.758 138.021 145.437 136.344C155.772 131.735 177.143 128.55 202.806 127.838C210.207 127.628 212.878 127.419 213.404 126.958C214.28 126.288 214.367 124.36 213.623 123.648C213.01 123.061 203.682 123.061 194.003 123.606Z" fill="black"/>
</svg>
