<svg width="35" height="35" viewBox="0 0 35 35" fill="none" xmlns="http://www.w3.org/2000/svg">
<path d="M17.3555 21.875H11.5078V20.7148L14.2676 17.7734C14.6465 17.3594 14.9258 16.998 15.1055 16.6895C15.2891 16.3809 15.3809 16.0879 15.3809 15.8105C15.3809 15.4316 15.2852 15.1348 15.0938 14.9199C14.9023 14.7012 14.6289 14.5918 14.2734 14.5918C13.8906 14.5918 13.5879 14.7246 13.3652 14.9902C13.1465 15.252 13.0371 15.5977 13.0371 16.0273H11.3379C11.3379 15.5078 11.4609 15.0332 11.707 14.6035C11.957 14.1738 12.3086 13.8379 12.7617 13.5957C13.2148 13.3496 13.7285 13.2266 14.3027 13.2266C15.1816 13.2266 15.8633 13.4375 16.3477 13.8594C16.8359 14.2812 17.0801 14.877 17.0801 15.6465C17.0801 16.0684 16.9707 16.498 16.752 16.9355C16.5332 17.373 16.1582 17.8828 15.627 18.4648L13.6875 20.5098H17.3555V21.875ZM24.1406 18.3477C24.1406 19.5273 23.8965 20.4297 23.4082 21.0547C22.9199 21.6797 22.2051 21.9922 21.2637 21.9922C20.334 21.9922 19.623 21.6855 19.1309 21.0723C18.6387 20.459 18.3867 19.5801 18.375 18.4355V16.8652C18.375 15.6738 18.6211 14.7695 19.1133 14.1523C19.6094 13.5352 20.3223 13.2266 21.252 13.2266C22.1816 13.2266 22.8926 13.5332 23.3848 14.1465C23.877 14.7559 24.1289 15.6328 24.1406 16.7773V18.3477ZM22.4473 16.625C22.4473 15.918 22.3496 15.4043 22.1543 15.084C21.9629 14.7598 21.6621 14.5977 21.252 14.5977C20.8535 14.5977 20.5586 14.752 20.3672 15.0605C20.1797 15.3652 20.0801 15.8438 20.0684 16.4961V18.5703C20.0684 19.2656 20.1621 19.7832 20.3496 20.123C20.541 20.459 20.8457 20.627 21.2637 20.627C21.6777 20.627 21.9766 20.4648 22.1602 20.1406C22.3438 19.8164 22.4395 19.3203 22.4473 18.6523V16.625Z" fill="#070B24"/>
<path d="M13.2964 28.6541C13.119 29.0956 12.6127 29.3203 12.1795 29.1251C10.2028 28.2344 8.47946 26.8838 7.16677 25.1888C5.68078 23.2701 4.78055 20.987 4.56822 18.5984C4.35589 16.2099 4.83996 13.8116 5.96551 11.6757C7.09107 9.53984 8.81303 7.75184 10.936 6.51462C13.059 5.27741 15.498 4.6405 17.9763 4.67619C20.4546 4.71187 22.8729 5.4187 24.9569 6.71649C27.0409 8.01428 28.707 9.85106 29.7664 12.0184C30.6948 13.918 31.1245 16.005 31.0241 18.095C31.0007 18.582 30.5492 18.9333 30.0586 18.8782C29.5763 18.8241 29.2381 18.3969 29.2568 17.9179C29.326 16.1401 28.9529 14.3676 28.163 12.7516C27.2454 10.8741 25.8021 9.28298 23.9968 8.15877C22.1916 7.03457 20.0967 6.42227 17.9499 6.39136C15.8031 6.36045 13.6903 6.91217 11.8513 7.98391C10.0122 9.05565 8.52059 10.6045 7.54558 12.4547C6.57058 14.3049 6.15125 16.3824 6.33518 18.4515C6.51911 20.5206 7.29893 22.4983 8.58617 24.1604C9.70006 25.5987 11.1553 26.7507 12.8237 27.5224C13.2549 27.7218 13.4739 28.2126 13.2964 28.6541Z" fill="black"/>
<path d="M33.8425 17.4891L31.4083 21.7614L27.2129 19.7528" stroke="black" stroke-linecap="round" stroke-linejoin="round"/>
</svg>
