<svg width="26" height="27" viewBox="0 0 26 27" fill="none" xmlns="http://www.w3.org/2000/svg">
<path fill-rule="evenodd" clip-rule="evenodd" d="M12.3743 3.54676C12.6584 3.67975 12.8416 3.97756 12.8416 4.30631V22.5785C12.8416 22.9072 12.6584 23.2051 12.3743 23.3381C12.0903 23.471 11.7588 23.4142 11.529 23.1931L5.99841 17.872H3.16269C2.15138 17.872 1.33154 17.0044 1.33154 15.9341V10.9507C1.33154 9.88044 2.15138 9.01278 3.16269 9.01278H5.99841L11.529 3.69175C11.7588 3.47061 12.0903 3.41376 12.3743 3.54676ZM11.2721 6.18382L6.82971 10.4579C6.68525 10.5969 6.49703 10.6739 6.30181 10.6739H3.16269C3.01822 10.6739 2.9011 10.7978 2.9011 10.9507V15.9341C2.9011 16.087 3.01822 16.2109 3.16269 16.2109H6.30181C6.49703 16.2109 6.68525 16.2879 6.82971 16.4269L11.2721 20.701V6.18382Z" fill="#24292E"/>
<path d="M19.8706 4.82879C20.1771 4.50444 20.674 4.50444 20.9805 4.82879C25.4755 9.58595 25.4755 17.2988 20.9805 22.056C20.674 22.3803 20.1771 22.3803 19.8706 22.056C19.5642 21.7316 19.5642 21.2057 19.8706 20.8814C23.7527 16.7729 23.7527 10.1118 19.8706 6.00338C19.5642 5.67902 19.5642 5.15315 19.8706 4.82879Z" fill="#24292E"/>
<path d="M17.281 8.74409C16.9745 8.41974 16.4776 8.41974 16.1711 8.74409C15.8647 9.06844 15.8647 9.59432 16.1711 9.91867C18.01 11.8648 18.01 15.02 16.1711 16.9662C15.8647 17.2905 15.8647 17.8164 16.1711 18.1407C16.4776 18.4651 16.9745 18.4651 17.281 18.1407C19.7328 15.5459 19.7328 11.3389 17.281 8.74409Z" fill="#24292E"/>
</svg>
