<svg width="260" height="251" viewBox="0 0 260 251" fill="none" xmlns="http://www.w3.org/2000/svg">
<path d="M110.611 1.37097C95.1665 3.69991 76.151 10.083 65.081 16.7248C45.2621 28.6283 33.2101 39.583 21.5151 56.317C17.587 61.9237 9.82018 76.5012 8.39179 81.0728C2.14258 100.308 0 111.694 0 125.495C0 152.58 9.90945 181.045 26.5145 201.833C30.7997 207.181 43.6552 220.034 48.6545 223.915C51.0649 225.813 67.3129 236.336 67.7592 236.336C67.9378 236.336 71.4195 237.889 75.5261 239.7C92.1311 247.205 110.254 251 129.805 251C157.212 251 181.048 243.927 203.992 229.004C211.491 224.088 225.418 211.667 230.239 205.456C230.774 204.852 231.756 203.645 232.47 202.868C243.719 190.879 254.343 166.813 258.36 144.558C261.663 125.927 259.967 106.346 253.361 86.8521C243.898 58.8184 225.418 35.6152 199.885 19.6575C193.904 15.9485 180.066 9.22041 175.335 7.75401C151.231 0.249619 131.233 -1.64804 110.611 1.37097ZM145.874 7.15022C147.124 7.409 150.159 7.84029 152.57 8.09906C160.247 9.04788 175.424 13.9646 174.264 15.1722C174.085 15.3447 172.299 14.7409 170.335 13.8783C168.461 12.9295 164.711 11.9806 162.211 11.6356C157.658 11.0318 157.48 11.1181 157.48 13.102C157.48 14.2233 156.944 15.6897 156.409 16.2935C154.712 17.9324 159.265 21.4689 162.211 20.9514C163.729 20.6926 165.068 21.1239 166.318 22.3315C168.371 24.3154 169.621 24.5742 170.425 23.2803C171.228 22.0728 169.353 19.14 167.3 18.5362C165.515 18.0187 164.711 14.6546 166.407 14.6546C166.943 14.6546 167.3 15.1721 167.3 15.776C167.3 17.2423 172.835 20.0026 174.621 19.3988C175.424 19.0538 176.317 19.2262 176.674 19.7438C176.942 20.2613 176.495 20.6926 175.603 20.7789C174.174 20.7789 174.174 20.8652 175.781 21.5552L177.567 22.3315L175.781 22.4178C174.174 22.504 174.085 22.504 175.603 23.3666C178.37 24.9193 177.21 25.6956 172.121 25.523C168.014 25.4368 166.854 25.0055 165.604 23.3666C164.622 22.159 163.729 21.7277 163.461 22.2453C163.104 22.6766 163.461 23.5391 164.176 24.1429C166.05 25.6093 165.872 26.7307 163.729 26.7307C162.747 26.7307 161.944 27.2482 161.944 27.9382C161.944 28.6283 160.783 29.6634 159.265 30.3535C157.837 30.9573 156.587 31.8198 156.587 32.2511C156.587 32.5961 155.962 32.7687 155.248 32.5099C154.534 32.1649 153.73 32.3374 153.463 32.7687C153.105 33.2862 153.641 33.6312 154.445 33.6312C156.587 33.6312 159.265 36.1327 159.265 38.1166C159.265 39.4105 158.551 39.6693 153.998 39.6693H148.731L148.91 42.9471C149.356 48.295 150.249 50.0202 152.57 50.0202C155.962 50.0202 156.498 53.3842 153.463 55.7132C151.856 56.9207 150.784 58.7321 150.427 60.9749C149.981 63.5626 149.267 64.5114 147.124 65.5465C145.606 66.2366 143.642 67.9617 142.75 69.4281C137.125 78.5714 136.768 79.3477 137.84 80.6415C139.357 82.3667 139.357 90.1299 137.84 91.855C137.036 92.8038 136.947 93.4939 137.661 94.184C138.197 94.7015 138.375 95.6504 138.107 96.3404C137.75 97.1167 139.179 99.0144 141.589 101.171C143.821 103.155 145.874 105.829 146.231 107.036C146.588 108.589 147.57 109.538 148.999 109.883C150.249 110.228 151.231 110.745 151.231 111.177C151.231 111.608 152.748 112.816 154.623 113.851C157.658 115.576 158.283 115.662 162.122 114.713C164.443 114.196 167.122 113.937 168.104 114.282C169.175 114.541 172.746 113.937 176.317 112.816L182.655 110.832L184.619 113.247C186.137 114.972 187.298 115.576 189.797 115.576C193.815 115.576 194.529 117.128 193.636 124.633C193.19 128.859 193.368 130.326 194.439 131.275C198.903 135.674 201.849 149.561 198.993 152.667C198.278 153.443 196.85 156.289 195.868 159.05C194.439 163.104 194.35 164.398 195.154 165.95C195.868 167.072 196.314 172.937 196.404 181.994C196.493 193.294 196.761 196.14 197.653 195.968C198.368 195.795 200.867 195.364 203.278 194.846C205.688 194.415 208.902 193.035 210.42 191.827C214.08 188.895 219.704 182.339 220.418 180.269C220.686 179.406 221.668 178.371 222.561 178.112C224.436 177.595 225.864 174.921 226.668 170.522C227.114 168.538 228.721 166.036 231.042 163.707C233.185 161.637 235.416 159.05 236.041 157.928C236.577 156.807 237.47 150.941 237.827 144.99C238.273 138.607 239.077 132.914 239.88 131.102C240.594 129.463 242.38 125.582 243.719 122.476C245.772 117.991 246.308 115.317 246.576 108.848C246.754 104.535 246.665 100.912 246.397 100.912C246.04 100.912 244.79 101.516 243.63 102.292C241.576 103.586 241.398 103.586 240.862 102.12C240.059 99.7045 237.738 95.4778 236.309 94.0115C235.059 92.7176 233.006 89.181 230.149 83.6606C228.007 79.2614 227.917 79.1752 223.811 73.3097C219.793 67.6167 219.615 67.2717 220.686 67.2717C221.757 67.2717 230.685 79.0027 230.685 80.469C230.685 81.2454 231.131 82.1079 231.578 82.3667C233.363 83.4018 237.113 89.8711 238.363 94.0977C239.077 96.4267 240.059 98.3243 240.505 98.3243C240.951 98.3243 242.201 97.1167 243.273 95.6503C244.969 93.3214 245.147 92.2001 244.701 86.4208L244.255 79.779L246.933 87.1109C251.575 100.049 253.182 110.055 253.271 125.495C253.271 141.539 251.843 150.338 247.022 163.707C240.148 183.202 230.685 197.434 215.151 212.012C206.134 220.465 194.35 228.401 183.459 233.49C173.639 237.975 168.818 239.01 152.57 240.218C144.982 240.735 136.59 241.943 129.359 243.323C120.61 245.048 111.861 244.617 107.218 242.115C105.076 240.908 101.951 239.7 100.255 239.442C97.3983 238.838 97.309 238.924 98.916 240.218C104.094 244.099 84.275 237.371 70.4375 230.557C51.7791 221.241 29.9069 199.677 20.4438 181.131C19.1047 178.544 17.4978 175.438 16.8729 174.231C14.3732 169.659 9.90945 155.254 8.30251 146.715C5.98138 134.552 6.07065 116.611 8.30251 104.362C10.1773 94.7878 12.677 86.8521 12.7662 90.3024C12.8555 91.4237 13.2126 92.2863 13.659 92.2863C14.1053 92.2863 14.7303 93.3214 15.0874 94.6152C15.3552 95.9091 16.0694 97.203 16.5158 97.4617C16.9621 97.8068 17.6763 100.049 18.212 102.465C19.2833 107.985 20.8009 109.969 22.4079 107.899C24.1041 105.656 24.8183 107.554 24.6397 113.333C24.5504 117.042 23.9255 119.802 22.765 121.786C21.3366 124.029 20.9795 126.185 20.9795 131.361C21.0687 138.175 22.3186 142.316 27.1394 151.114C28.1214 152.839 28.9249 154.909 28.9249 155.599C28.9249 156.289 30.7997 158.273 33.0315 160.085C38.6558 164.57 39.1914 165.778 43.2981 181.563C43.7444 183.46 44.905 186.566 45.887 188.55C46.7798 190.447 48.2081 194.156 49.1009 196.744C49.9044 199.332 51.1542 201.833 51.7791 202.351C52.4933 202.868 53.029 203.731 53.029 204.248C53.029 204.766 54.2788 206.491 55.7072 208.044C57.2249 209.596 58.6532 211.58 58.9211 212.443C60.4387 217.015 75.6154 227.883 78.2936 226.244C78.74 225.985 77.8472 225.209 76.3296 224.605C72.7586 223.139 70.616 221.069 70.2589 218.74C70.0804 217.791 69.1876 216.411 68.2056 215.721C67.045 214.944 66.4201 213.564 66.4201 211.753C66.4201 210.028 65.8845 208.734 65.081 208.389C64.3668 208.13 63.7419 207.526 63.7419 207.095C63.7419 206.577 64.2775 206.405 64.9917 206.664C65.8845 207.009 66.1523 206.664 65.7952 205.456C65.5274 204.162 65.9737 203.645 67.6699 203.213C69.9911 202.696 70.8838 199.936 69.0983 198.814C67.5807 197.865 68.1163 196.83 70.1696 196.485C71.5088 196.313 72.4908 195.364 73.0264 193.639C73.4728 192.172 74.5441 189.671 75.4368 187.946C76.5081 185.962 76.9545 183.892 76.5974 181.908C76.151 179.32 76.5081 178.803 79.0971 177.164C80.704 176.215 83.2037 175.093 84.5428 174.748C86.3283 174.317 87.4889 173.196 88.4709 171.039C90.5242 166.123 90.792 164.743 90.792 158.877C90.792 155.944 91.0598 153.529 91.5062 153.529C92.1311 153.529 94.8094 149.734 97.4876 145.162C98.2018 143.955 98.3803 142.057 98.1125 140.245C97.6661 138.003 96.9519 137.226 95.1664 136.881C93.8273 136.623 91.6847 135.415 90.4349 134.294C88.9172 132.827 86.6854 132.051 83.1144 131.62C80.3469 131.275 78.0258 130.671 78.0258 130.24C78.0258 129.377 72.58 127.134 71.1516 127.479C70.5267 127.652 69.9911 127.393 69.9911 126.962C69.9911 126.531 69.2769 125.927 68.2949 125.668C67.1343 125.409 66.5094 124.202 66.063 121.528C65.081 115.748 61.5993 112.557 56.5999 112.902C54.9037 112.988 53.8324 112.298 52.3148 109.969C51.2435 108.33 49.9044 106.95 49.458 106.95C48.9223 106.95 48.5652 106.433 48.5652 105.829C48.5652 104.104 45.7085 102.982 41.6911 103.068C39.2807 103.068 37.8523 102.723 37.8523 102.12C37.8523 100.653 35.5312 100.049 34.2813 101.171C33.3886 102.033 33.2101 101.861 33.7457 100.653C34.2813 99.1006 34.1921 99.1006 31.4246 100.653C29.8176 101.602 28.3 103.068 28.1214 104.017C27.5858 107.036 26.1574 107.985 24.9075 106.346C23.9255 105.139 23.5684 105.052 22.3186 106.001C21.158 106.95 20.8902 106.778 20.3545 104.794C19.9975 103.5 20.176 100.481 20.8009 98.1518C22.14 92.5451 22.0508 92.2863 20.0867 92.2863C18.5691 92.2863 18.4798 91.9413 19.0154 89.8711C19.4618 88.491 20.4438 86.2483 21.2473 84.6957C22.8542 81.5904 22.9435 81.0728 21.8722 81.0728C21.4258 81.0728 20.2653 82.453 19.194 84.0919C16.8729 87.8872 15.0874 88.0597 15.8908 84.4369C16.605 80.7278 22.9435 67.9617 24.729 66.5816C25.5325 65.8915 26.6038 65.6328 27.0501 65.8915C27.4965 66.2366 28.3 65.8053 28.7463 65.029C29.282 64.0801 30.1747 63.8214 31.5138 64.2526C33.4779 64.8564 33.9242 65.9778 32.4959 66.8404C32.0495 67.0991 31.6031 68.6518 31.6031 70.1181C31.6031 73.5685 32.9422 71.9296 34.3706 66.6678C34.9063 64.6839 36.2454 62.0962 37.3167 61.0611C39.9949 58.3009 45.1728 54.333 46.0656 54.333C46.4227 54.333 46.7798 53.8155 46.7798 53.1254C46.7798 51.6591 53.9217 44.8447 55.5286 44.8447C56.1536 44.8447 57.3141 44.0684 58.2069 43.0333C59.9031 41.0494 62.9384 39.3242 66.4201 38.4617C68.2056 37.9441 68.3841 38.0304 67.3129 38.8067C65.2595 40.2731 70.8838 38.8067 73.1157 37.3403C74.8119 36.219 74.7226 36.1327 72.4908 36.7365C70.3482 37.1678 69.9911 36.9953 69.9911 35.4427C69.9911 34.3213 70.5267 33.6312 71.598 33.6312C72.8479 33.6312 72.9371 33.4587 71.7766 32.7687C70.7053 32.0786 70.7053 31.9061 72.1337 31.3885C73.1157 31.0435 74.0084 31.216 74.5441 31.9924C74.9904 32.6824 75.3475 32.7687 75.3475 32.2511C75.3475 31.3023 81.0611 29.6634 82.8466 30.0947C84.6321 30.4397 86.239 28.0245 85.7034 25.6093C85.4355 24.2292 85.6141 22.3315 86.1497 21.3827C87.0425 19.8301 86.9532 19.7438 85.1677 20.6926C82.8466 21.9003 81.8646 21.2102 83.3822 19.3988C84.275 18.2774 84.1857 18.1049 82.5788 18.1049C80.9718 18.1049 74.8119 21.814 67.045 27.6795C64.4561 29.5771 62.6706 29.5771 65.081 27.5932C65.7952 26.9894 66.4201 25.9543 66.4201 25.178C66.4201 24.4879 67.1343 23.3666 68.0271 22.6766C70.8838 20.4339 77.9365 17.2423 79.9005 17.2423C81.0611 17.2423 82.5788 16.7248 83.293 16.121C84.8999 14.7409 91.774 12.0669 93.4702 12.0669C95.0772 12.1532 90.3456 14.5684 88.5602 14.6546C86.8639 14.6546 86.3283 16.8111 87.846 17.6736C88.3816 17.9324 88.7387 17.8461 88.7387 17.3286C88.7387 16.8111 89.2743 16.6385 89.9885 16.8973C90.7027 17.1561 91.6847 16.6385 92.3097 15.5172C92.8453 14.5684 93.6488 13.9646 94.0952 14.2233C94.6308 14.4821 95.7021 14.3096 96.5056 13.8783C97.3983 13.3607 97.7554 12.9295 97.3983 12.9295C96.9519 12.9295 97.7554 11.9806 99.1838 10.8593C101.416 9.04787 110.165 6.89146 110.165 8.09906C110.165 8.96164 107.129 12.0669 106.236 12.0669C104.987 12.0669 101.237 15.6897 101.237 16.8973C101.237 17.4148 102.219 18.1912 103.469 18.4499C105.076 18.8812 106.683 18.2774 109.361 16.3797C111.414 14.9996 113.825 13.792 114.718 13.792C115.61 13.792 117.217 13.447 118.378 13.0157C119.538 12.4982 122.395 11.8944 124.716 11.6356C127.93 11.2043 128.912 10.773 128.555 9.82417C128.287 9.13412 128.466 8.61659 128.912 8.61659C129.448 8.61659 129.805 8.01279 129.805 7.23647C129.805 6.02887 130.787 5.94263 136.768 6.28764C140.518 6.46017 144.624 6.89145 145.874 7.15022ZM184.173 40.0143C186.851 41.3082 190.869 44.3272 193.1 46.6561C197.207 50.8827 199.439 52.0041 199.439 49.5889C199.439 48.8988 198.903 48.295 198.189 48.295C196.85 48.295 195.689 46.2249 196.493 45.3623C197.743 44.1547 199.35 45.0172 201.314 47.7775C203.903 51.4866 206.045 52.4354 210.42 52.1766C213.276 51.9178 213.901 52.2628 214.973 54.1605C215.598 55.4544 216.49 57.6971 216.758 59.0772L217.383 61.7512L213.098 61.5787C208.456 61.3199 203.813 59.9398 202.921 58.4734C202.563 57.9558 201.671 57.7833 200.867 58.0421C199.796 58.4734 199.528 59.2497 199.975 60.8024C200.51 62.9588 199.26 63.8214 198.1 62.0962C197.832 61.5787 196.85 61.2336 195.957 61.2336C195.064 61.2336 193.636 60.4573 192.743 59.5085C191.851 58.5597 190.065 57.7833 188.815 57.7833C186.048 57.6971 183.369 55.9719 183.369 54.0743C183.369 51.1415 181.316 50.4514 173.906 50.969C170.068 51.2278 165.604 52.0041 164.086 52.6079C161.229 53.8155 156.587 53.2117 156.587 51.7453C156.587 51.2278 157.569 50.8827 158.819 50.8827C161.676 50.8827 164.89 48.1225 164.086 46.3111C163.818 45.4485 164.265 44.4997 165.425 43.8096C166.497 43.2058 167.3 41.9982 167.3 41.2219C167.3 40.1868 168.014 39.7555 169.8 39.8418C171.139 39.928 172.835 39.6693 173.639 39.3242C174.621 38.8929 175.781 39.3242 176.763 40.3593C177.745 41.3082 180.423 42.8608 182.834 43.8959C187.833 45.9661 187.833 45.9661 187.833 44.8447C187.833 44.3272 186.851 43.5508 185.601 43.1196C182.745 42.0845 178.013 38.7204 178.013 37.6853C178.013 36.8228 177.835 36.7365 184.173 40.0143Z" fill="black"/>
</svg>
