<?xml version="1.0" standalone="no"?>
<!DOCTYPE svg PUBLIC "-//W3C//DTD SVG 20010904//EN"
 "http://www.w3.org/TR/2001/REC-SVG-20010904/DTD/svg10.dtd">
<svg version="1.0" xmlns="http://www.w3.org/2000/svg"
 width="600.000000pt" height="600.000000pt" viewBox="0 0 600.000000 600.000000"
 preserveAspectRatio="xMidYMid meet">
<metadata>
Created by potrace 1.14, written by Peter Selinger 2001-2017
</metadata>
<g transform="translate(0.000000,600.000000) scale(0.100000,-0.100000)"
fill="#000000" stroke="none">
<path d="M3723 5321 c-66 -22 -114 -55 -144 -99 -21 -30 -24 -48 -25 -123 -1
-49 2 -108 6 -131 7 -37 22 -182 23 -213 0 -5 -4 -62 -9 -125 -4 -63 -8 -169
-8 -235 0 -110 3 -151 18 -244 9 -59 9 -105 -2 -151 -15 -62 -7 -111 27 -178
26 -52 26 -62 -2 -89 -37 -35 -46 -82 -43 -246 2 -116 7 -162 20 -193 20 -48
16 -91 -12 -156 -12 -27 -19 -48 -17 -48 2 0 -2 -15 -10 -34 -44 -105 -60
-312 -41 -536 5 -65 2 -109 -12 -190 -19 -103 -24 -334 -8 -385 33 -105 54
-233 49 -293 -5 -61 -6 -185 -4 -377 0 -38 -1 -86 -3 -105 -2 -19 3 -52 11
-74 8 -24 13 -83 13 -156 0 -111 2 -122 40 -229 22 -62 47 -126 56 -143 22
-43 92 -116 128 -135 40 -21 160 -26 206 -8 19 7 92 33 163 58 206 73 281 124
404 272 22 28 96 106 163 175 198 202 283 320 295 407 4 36 22 114 27 117 1 2
34 23 73 47 107 67 168 137 243 280 69 131 119 303 138 469 9 80 6 220 -6 254
-12 36 -72 157 -90 181 -4 6 1 51 11 100 38 189 43 442 14 677 -9 73 -94 279
-130 315 -32 32 -39 59 -37 146 4 122 -17 196 -102 362 -39 77 -82 165 -96
195 -14 30 -42 82 -64 115 -22 33 -47 82 -57 109 -23 62 -59 114 -118 171 -65
62 -458 356 -512 382 -47 23 -100 36 -199 48 -30 3 -66 8 -80 10 -14 3 -50 7
-80 10 -132 14 -166 13 -217 -4z m179 -127 c31 -16 30 -32 -3 -117 -40 -99
-30 -180 24 -208 18 -10 19 -9 14 12 -3 13 -8 35 -11 49 -6 24 21 88 47 114 7
7 33 37 60 68 l47 55 68 -1 c37 -1 78 -8 92 -15 32 -17 149 -112 190 -154 29
-29 31 -36 24 -77 -4 -25 -7 -78 -7 -118 -1 -57 4 -78 19 -100 30 -40 100 -84
195 -121 104 -41 109 -46 109 -86 0 -38 -9 -43 -65 -39 -122 9 -155 15 -199
34 -27 11 -52 18 -55 14 -12 -12 75 -73 177 -123 122 -61 171 -106 202 -188
17 -47 20 -69 15 -113 -10 -76 -8 -115 7 -142 43 -79 54 -221 23 -319 -7 -20
2 -24 22 -11 11 7 62 108 67 135 5 23 25 65 33 70 21 11 71 -14 81 -41 25 -73
-18 -234 -82 -307 -28 -34 -37 -38 -76 -37 -25 1 -58 5 -75 10 -16 4 -38 6
-49 4 -16 -3 -14 -8 13 -36 l32 -33 -25 -17 c-14 -9 -27 -16 -30 -16 -3 0 -62
-34 -133 -75 -70 -41 -131 -75 -136 -75 -5 0 -5 8 -1 18 13 25 14 274 2 290
-6 6 -8 12 -4 12 3 0 -10 44 -30 98 -45 122 -48 180 -17 292 14 47 31 108 38
135 18 65 81 124 159 149 14 5 16 9 7 20 -12 14 -80 13 -140 -4 -34 -9 -36 -8
-114 73 -43 45 -88 99 -98 120 -27 52 -30 138 -8 222 31 116 21 157 -66 280
-23 33 -48 77 -54 98 -13 39 -25 47 -34 23 -9 -24 2 -66 37 -141 65 -138 69
-181 25 -234 l-19 -24 -41 18 c-22 10 -70 47 -106 83 -61 59 -69 63 -103 59
-45 -5 -98 -35 -106 -60 -9 -30 2 -30 48 -3 53 31 58 28 111 -55 20 -31 61
-81 91 -111 37 -37 67 -81 90 -133 20 -42 36 -79 36 -82 0 -9 70 -104 120
-163 l47 -55 -12 -55 c-6 -30 -19 -77 -28 -105 -28 -85 -34 -147 -23 -235 9
-70 32 -163 50 -204 51 -111 55 -214 10 -297 -33 -61 -124 -157 -204 -215 -73
-54 -95 -65 -158 -80 -52 -12 -53 -12 -101 21 -58 39 -77 31 -55 -22 l15 -35
-53 -52 c-47 -45 -149 -135 -201 -175 -17 -14 -18 -11 -13 56 6 76 14 138 22
165 3 9 7 25 9 35 8 43 59 191 77 226 39 77 154 157 226 157 27 0 43 -9 71
-38 20 -20 45 -53 55 -72 l20 -35 6 41 c7 46 5 153 -5 254 -6 63 -4 70 37 155
37 79 42 98 43 160 0 60 -6 83 -42 165 -48 109 -47 114 31 190 25 24 46 47 46
51 0 3 -23 9 -51 11 -44 5 -55 10 -78 39 -61 80 -232 221 -248 205 -4 -3 12
-32 35 -64 120 -164 124 -171 124 -226 0 -28 -3 -71 -7 -96 -5 -35 0 -66 24
-142 17 -54 35 -107 41 -118 8 -15 3 -35 -26 -97 -20 -43 -49 -118 -66 -168
-17 -49 -34 -97 -39 -106 -9 -18 -138 -59 -186 -59 -37 0 -42 14 -48 132 -2
41 -5 78 -6 84 -4 23 3 43 22 65 61 69 71 88 68 131 -1 25 -14 66 -32 97 -33
62 -33 108 2 184 22 50 40 69 116 122 50 36 54 40 32 43 -13 2 -59 -5 -101
-16 -50 -12 -76 -15 -77 -8 0 6 -3 20 -5 31 -8 31 -8 293 -1 355 14 123 26
167 71 272 9 21 15 39 14 41 -2 2 3 11 9 19 18 21 4 31 -21 15 -12 -8 -31 -16
-43 -19 -20 -5 -24 -1 -33 32 -6 21 -11 71 -13 109 -1 39 -5 71 -9 71 -12 0 3
33 26 59 44 49 128 60 198 25z m729 -341 c84 -64 179 -169 179 -199 0 -14 -37
-10 -120 12 -30 9 -61 16 -69 16 -8 1 -31 18 -51 38 -34 34 -37 42 -35 84 4
60 13 96 24 96 5 0 37 -21 72 -47z m338 -512 c49 -98 102 -207 116 -242 27
-66 39 -146 25 -169 -11 -18 -62 -6 -117 26 -39 23 -43 28 -44 67 -3 101 -15
168 -49 267 -16 47 -29 103 -30 125 -3 61 -1 105 5 105 3 0 45 -80 94 -179z
m259 -728 c20 -50 46 -124 45 -133 -1 -3 3 -12 8 -21 11 -22 19 -121 24 -333
l5 -178 -32 -97 c-18 -53 -33 -100 -34 -106 -1 -5 -11 -39 -23 -75 -43 -128
-37 -200 9 -111 27 54 34 56 64 20 46 -54 57 -86 62 -184 l5 -93 -33 6 c-18 4
-72 7 -120 7 -82 0 -89 -2 -116 -28 -16 -16 -40 -49 -53 -74 -32 -62 -75 -122
-130 -180 -63 -67 -77 -91 -83 -146 -8 -64 -22 -83 -78 -107 -44 -19 -50 -19
-90 -5 -24 8 -49 15 -55 15 -24 0 -13 -35 27 -90 94 -129 96 -135 49 -201 -83
-117 -133 -142 -334 -169 -49 -7 -97 -14 -105 -15 -8 -1 -40 -6 -70 -11 -30
-4 -57 -8 -60 -9 -3 -1 -18 -5 -35 -10 -49 -13 -85 -34 -85 -50 0 -8 6 -15 13
-16 6 0 73 -2 147 -4 217 -7 313 -14 321 -22 4 -4 -4 -60 -17 -123 -14 -63
-25 -143 -25 -177 0 -64 -7 -80 -68 -141 -42 -41 -191 -132 -191 -116 0 3 -6
2 -12 -4 -23 -18 -137 -35 -156 -23 -8 5 -16 90 -13 137 1 6 22 11 50 11 88 1
241 60 241 93 0 20 -331 -8 -353 -29 -18 -18 -19 -126 -2 -195 17 -67 17 -70
0 -83 -38 -27 -113 8 -149 70 -14 23 -30 65 -37 92 -11 49 -29 95 -39 105 -31
30 -41 148 -14 175 15 14 17 14 30 -2 7 -10 25 -49 40 -88 40 -106 50 -110 59
-29 4 30 13 53 23 59 14 8 107 37 193 59 28 8 149 65 149 71 0 3 -73 3 -163 1
-163 -5 -164 -5 -223 23 -69 33 -98 62 -90 88 7 20 30 36 206 143 184 112 211
130 250 167 27 25 31 33 17 33 -21 0 -222 -72 -388 -140 -106 -43 -121 -46
-127 -32 -12 30 -1 378 13 414 4 9 21 19 38 22 27 5 149 75 167 96 21 24 98
75 146 96 50 22 56 27 40 36 -34 19 -107 -1 -230 -62 -66 -33 -128 -60 -137
-60 -24 0 -45 29 -57 79 -12 50 -13 382 -1 421 4 14 17 57 29 97 32 107 100
206 194 280 54 43 76 42 120 -7 35 -39 171 -150 185 -150 10 0 101 -87 101
-96 0 -5 7 -17 14 -27 13 -16 15 -16 30 -2 18 18 22 89 7 128 -12 31 -51 72
-126 132 -78 63 -85 70 -85 92 0 20 42 73 58 73 14 0 86 42 90 52 2 4 8 8 12
8 5 0 34 18 65 39 l56 39 67 -19 c147 -43 165 -42 140 3 -7 13 -16 25 -19 28
-3 3 -11 15 -17 26 -11 20 -8 23 37 38 27 8 101 41 166 72 138 66 167 70 310
37 55 -13 116 -26 135 -29 19 -3 38 -8 43 -11 4 -2 7 2 7 10 0 8 -23 34 -52
58 -29 24 -70 60 -92 80 l-40 37 47 118 c25 66 49 131 53 147 9 41 29 33 52
-20z m110 -1397 c11 -7 -3 -80 -39 -201 -71 -245 -167 -373 -308 -410 -98 -26
-161 -3 -161 60 0 44 51 141 103 198 41 44 48 47 93 47 27 0 66 -5 87 -11 22
-6 42 -8 45 -5 3 4 -24 34 -61 69 l-66 62 14 30 c15 31 36 66 45 75 3 3 23 27
44 54 l39 49 78 -6 c43 -3 82 -8 87 -11z m-467 -746 c24 -13 24 -32 -1 -111
-20 -66 -74 -149 -165 -254 -102 -117 -175 -180 -146 -126 15 27 23 77 26 165
l3 78 57 57 c31 32 75 84 96 117 21 32 43 65 49 72 13 15 54 16 81 2z"/>
<path d="M4710 3917 c-33 -15 -58 -44 -76 -87 -19 -44 -21 -82 -6 -150 6 -30
14 -84 17 -120 4 -36 10 -69 14 -73 9 -9 41 48 59 103 6 19 14 93 16 163 3 75
9 134 16 142 11 14 6 36 -8 34 -4 0 -18 -6 -32 -12z"/>
<path d="M4907 3056 c-21 -8 -45 -22 -52 -33 -16 -20 -37 -100 -60 -221 -9
-45 -21 -94 -27 -107 -13 -28 -122 -117 -146 -119 -10 -1 -29 25 -54 78 -21
43 -41 76 -44 73 -4 -3 -7 -43 -9 -89 -4 -124 -17 -162 -81 -225 -96 -93 -90
-91 -190 -43 -115 56 -188 64 -265 28 -59 -28 -83 -48 -126 -105 -15 -21 -31
-40 -34 -43 -12 -10 -40 -72 -35 -77 3 -3 38 18 77 47 99 72 141 92 193 92 51
0 92 -19 147 -69 82 -74 93 -143 45 -286 -47 -139 -49 -142 -241 -242 -196
-101 -262 -154 -253 -200 3 -17 4 -17 19 -3 25 26 179 94 254 112 6 2 17 6 25
9 8 3 58 19 110 36 l95 30 43 -25 c49 -29 152 -123 152 -140 0 -6 8 -19 19
-28 18 -16 19 -16 23 6 8 41 -11 84 -78 185 l-66 98 4 75 c3 56 11 90 32 134
33 68 61 84 152 87 87 3 216 34 289 69 42 20 87 54 133 99 73 73 84 96 107
224 9 45 -14 28 -49 -36 -84 -155 -239 -245 -421 -245 -78 0 -115 9 -147 36
-42 35 -25 52 222 214 155 102 200 140 225 187 22 44 47 54 87 38 49 -21 108
-30 108 -17 0 25 -87 130 -108 130 -5 0 -21 11 -35 24 -20 19 -25 31 -21 57 9
65 14 79 38 94 26 17 32 19 154 35 46 6 93 15 105 20 22 8 22 8 -4 18 -70 28
-257 39 -312 18z"/>
<path d="M1887 4954 c-1 -1 -30 -4 -65 -7 -179 -14 -381 -189 -420 -363 -5
-22 -8 -86 -7 -144 1 -96 4 -110 31 -160 28 -52 131 -170 148 -170 4 0 20 -8
34 -18 107 -74 297 -88 445 -32 102 38 222 148 274 250 26 51 28 65 31 200 l4
145 -39 60 c-85 130 -217 216 -356 232 -42 5 -78 8 -80 7z"/>
<path d="M3307 4728 c-36 -66 -71 -130 -117 -213 -15 -27 -40 -72 -55 -100
-15 -27 -84 -149 -153 -271 -141 -249 -117 -230 -248 -194 -159 43 -249 56
-376 54 -68 -1 -134 -5 -148 -8 -14 -3 -38 -9 -55 -12 -103 -23 -194 -156
-155 -229 20 -38 156 -91 280 -111 137 -21 453 -23 568 -4 132 23 196 72 280
214 26 44 47 82 48 85 0 4 11 29 23 56 47 104 108 331 127 470 2 17 6 41 9 55
3 14 7 43 11 65 3 22 7 47 9 55 2 8 7 45 10 83 9 89 -11 91 -58 5z"/>
<path d="M1067 4044 c-1 -1 -35 -5 -76 -8 -41 -4 -77 -9 -80 -11 -3 -1 -24 -6
-46 -9 -69 -11 -181 -44 -238 -71 -54 -26 -117 -78 -117 -98 0 -6 -6 -18 -13
-26 -26 -30 -93 -218 -116 -326 -25 -114 -36 -272 -36 -550 0 -257 8 -291 46
-198 13 32 24 60 24 63 1 7 44 122 55 145 5 11 41 110 80 220 119 334 170 471
186 493 9 14 22 19 36 17 12 -3 40 -7 63 -10 22 -4 51 -8 65 -10 309 -48 596
10 677 138 21 34 27 55 28 112 l2 70 -53 22 c-29 13 -85 25 -126 28 -65 5
-357 12 -361 9z"/>
<path d="M1451 2983 c-62 -12 -140 -96 -161 -172 -8 -31 -8 -52 -1 -131 0 -9
23 -40 49 -69 l49 -54 -29 -91 c-16 -49 -31 -94 -34 -98 -3 -4 -7 -16 -9 -25
-4 -20 -82 -260 -92 -283 -3 -8 -7 -19 -9 -25 -1 -5 -34 -107 -73 -225 -381
-1150 -420 -1274 -418 -1322 1 -33 25 -18 63 39 21 32 41 60 46 61 4 2 8 8 8
13 0 5 15 33 34 62 54 85 306 527 306 538 0 5 5 9 10 9 6 0 10 4 10 10 0 5 31
65 69 132 89 161 109 196 164 298 25 47 64 119 86 160 23 41 103 199 179 351
128 256 140 275 163 273 13 -2 113 -5 223 -8 109 -3 200 -7 203 -9 2 -2 -8
-35 -21 -73 -14 -38 -47 -141 -75 -229 -27 -88 -67 -214 -88 -280 -20 -66 -38
-122 -38 -125 -1 -6 -2 -8 -100 -310 -83 -254 -95 -303 -70 -294 13 5 124 139
165 200 8 12 61 85 116 161 151 206 334 486 334 512 0 3 11 23 25 44 14 20 23
37 19 37 -3 0 -1 6 5 14 17 21 98 217 122 298 29 100 33 123 32 194 -1 84 -30
129 -123 190 -60 40 -243 117 -295 124 -3 0 -24 8 -47 16 -47 16 -211 59 -292
76 -51 10 -460 19 -505 11z"/>
</g>
</svg>
