<svg width="260" height="256" viewBox="0 0 260 256" fill="none" xmlns="http://www.w3.org/2000/svg">
<path d="M108.42 29.9514C66.8205 39.2954 35.1005 73.4714 30.4205 113.919C29.7705 119.551 28.9905 121.983 27.4305 122.495C16.5105 125.823 9.36047 131.583 5.98047 139.775C3.25047 146.047 2.99047 178.559 5.59047 184.703C10.7905 196.735 20.2805 202.111 38.0905 203.135C48.3605 203.775 50.4405 203.519 52.3905 201.727C54.3405 199.679 54.6005 195.327 54.6005 157.567C54.6005 110.719 55.1205 107.263 63.3105 91.7754C76.3105 67.3274 101.4 52.3514 129.22 52.3514C135.85 52.3514 143.91 52.9914 147.03 53.7594C169.26 59.6474 186.68 73.0874 196.82 92.1594C204.88 107.135 205.4 111.487 205.4 157.823C205.4 205.823 204.75 203.519 216.97 203.519C235.43 203.519 245.7 198.911 252.2 187.775C255.97 181.247 256.1 180.863 256.1 162.815C256.1 142.591 254.93 137.983 248.17 131.071C244.66 127.487 239.2 124.543 232.57 122.495C231.01 121.983 230.23 119.551 229.58 113.919C225.29 76.4154 197.21 43.7754 159.25 31.9994C147.55 28.2874 120.51 27.2634 108.42 29.9514ZM147.94 39.0394C153.92 40.1914 162.89 43.3914 170.3 46.9754C180.57 51.9674 184.47 54.6554 193.7 63.8714C209.17 79.2314 216.84 94.2074 220.35 116.095C221.13 121.343 221.13 121.599 217.88 121.599C214.89 121.599 214.5 121.087 214.5 117.375C214.5 110.847 210.86 98.8154 205.79 88.3194C202.28 81.0234 198.64 76.2874 190.58 68.3514C172.77 50.8154 155.09 43.5194 130.52 43.3914C105.56 43.2634 87.7505 50.4314 70.0705 67.8394C61.4905 76.2874 57.8505 80.8954 54.2105 88.3194C49.1405 98.8154 45.5005 110.847 45.5005 117.375C45.5005 121.087 45.1105 121.599 42.2505 121.599C40.3005 121.599 39.0005 120.831 39.0005 119.807C39.0005 113.151 43.8105 97.4074 48.8805 87.0394C53.9505 76.9274 56.8105 73.0874 66.1705 63.8714C75.5305 54.6554 79.4305 51.8394 89.7005 46.9754C109.33 37.5034 127.53 35.0714 147.94 39.0394ZM44.2005 161.919V193.279H35.8805C26.9105 193.279 21.4505 190.719 16.3805 183.935C14.0405 180.735 13.6505 178.175 13.2605 163.839C12.8705 148.607 13.0005 146.815 15.7305 142.079C20.2805 134.143 26.5205 130.815 38.0905 130.687L44.2005 130.559V161.919ZM236.86 134.143C239.33 135.679 242.58 139.135 244.27 142.079C247 146.815 247.13 148.479 246.74 163.839C246.35 178.175 245.96 180.735 243.62 183.935C238.55 190.719 233.09 193.279 224.12 193.279H215.8V161.791V130.175L224.12 130.815C229.32 131.327 234.13 132.479 236.86 134.143Z" fill="black"/>
<path d="M62.6602 116.224C61.4902 117.12 61.1002 129.152 61.3602 172.288L61.7502 227.2L129.22 227.584C177.97 227.712 197.21 227.456 198.38 226.432C199.81 225.28 200.2 215.296 200.2 172.544C200.2 138.88 199.68 119.296 198.9 117.632C197.6 115.328 195.91 115.2 169.26 115.2C143.91 115.2 140.53 115.456 135.33 117.76C129.87 120.32 129.48 120.32 126.23 118.144C123.24 116.096 119.08 115.84 93.6002 115.456C77.4802 115.328 63.5702 115.584 62.6602 116.224ZM122.46 127.616C124.67 129.536 124.8 132.48 124.8 166.784C124.8 201.6 124.67 203.776 122.59 202.752C121.29 202.112 108.94 201.472 95.2902 201.216L70.2002 200.832V163.2V125.44H95.1602C116.48 125.44 120.38 125.696 122.46 127.616ZM189.8 163.2V200.832L164.84 201.216C151.06 201.472 138.71 202.112 137.54 202.752C135.33 203.776 135.2 201.6 135.2 167.424C135.2 136.704 135.46 130.688 137.28 128.256C139.23 125.568 139.88 125.44 164.58 125.44H189.8V163.2ZM119.21 212.736C124.93 219.008 125.45 218.88 96.9802 218.88H70.2002V214.4V209.92H93.3402C115.7 209.92 116.61 210.048 119.21 212.736ZM189.8 214.4V218.88H163.8C149.5 218.88 137.8 218.368 137.8 217.728C137.8 217.216 138.97 215.168 140.53 213.248L143.13 209.92H166.53H189.8V214.4Z" fill="black"/>
</svg>
