<svg width="500" height="500" viewBox="0 0 500 500" fill="none" xmlns="http://www.w3.org/2000/svg">
<path d="M314.2 64.3665C312.9 65.6665 312.6 72.9665 313.8 74.8665C314.2 75.4665 315.8 76.5665 317.4 77.0665C321 78.4665 325 76.6665 326.9 72.7665C328.1 70.2665 328 69.4665 326.6 66.5665C325.1 63.3665 324.7 63.1665 320.2 63.1665C317.6 63.1665 314.9 63.6665 314.2 64.3665Z" fill="black"/>
<path d="M423.6 65.3668C420.5 69.7668 422.2 75.1668 427.3 77.0668C434.1 79.6668 439.7 71.9668 436 65.0668C434.4 62.1668 425.7 62.3668 423.6 65.3668Z" fill="black"/>
<path d="M127.5 80.6664C124.2 83.8664 124.2 88.0664 127.5 91.1664C134 97.2664 143.6 90.1664 139.6 82.2664C137.1 77.4664 131.4 76.6664 127.5 80.6664Z" fill="black"/>
<path d="M377.1 80.7665C375.6 82.7665 375 84.8665 375 88.7665V94.1665H369.1C363.9 94.1665 362.9 94.4665 361.1 96.7665C356.5 102.667 360 107.867 369 108.367L374.5 108.667L375 114.267C375.6 121.367 377.9 124.167 383 124.167C388.2 124.167 390.3 121.567 390.8 114.167L391.2 108.167H396.5C401.1 108.167 402.1 107.767 404 105.467C408.2 100.067 404.1 94.1665 396 94.1665H391.2L390.8 88.0665C390.4 83.1665 389.9 81.4665 388.1 80.0665C384.6 77.2665 379.6 77.5665 377.1 80.7665Z" fill="black"/>
<path d="M210 110.567C192.1 114.367 179 121.967 164.5 136.667C157.3 143.967 153.3 148.867 150.6 154.067C138.6 176.967 138.4 213.267 150.2 234.967C160.9 254.567 177.7 268.967 197.8 275.567L203 277.367V295.267V313.167H195.2C188.3 313.167 186.9 313.467 182.8 316.067C180 317.867 177.1 320.867 175.3 323.867L172.5 328.667L172.2 363.167C171.8 399.967 172.2 404.667 176.6 413.367C179.5 419.067 187.9 428.867 192.3 431.467C197.9 434.867 206 437.167 212.7 437.167H219V429.667V422.167H215.2C205.2 422.167 194.4 415.667 189.7 406.767C187.6 402.767 187.5 401.567 187.2 368.167C186.9 334.167 186.9 333.567 189 330.867C192 327.067 198 327.067 200.9 330.767C202.9 333.267 203 334.667 203 354.367V375.267L210.8 374.967L218.5 374.667L218.8 306.767L219 238.767L221.2 236.467C224.2 233.167 229.2 233.367 231.9 236.767C234 239.367 234 240.367 234 291.867V344.267L241.8 343.967L249.5 343.667L249.8 322.667C250 302.867 250.2 301.667 252.2 299.467C255.3 296.167 261.2 296.267 263.9 299.767C265.9 302.267 266 303.667 266 323.367V344.267L273.3 343.967L280.5 343.667L280.8 329.967C281.1 316.567 281.1 316.267 283.7 314.267C287.2 311.467 291.5 311.567 294.5 314.667C296.9 316.967 297 317.567 297 330.667V344.167H304.5H312V338.767C312 331.567 314.6 328.167 320 328.167C323 328.167 324.3 328.767 325.9 330.767C327.9 333.367 328 334.567 328 365.567C328 383.467 327.6 399.267 327 401.167C324 411.967 314 420.667 303.2 421.767L297 422.467V429.967V437.367L304.3 436.967C323.4 436.067 340 420.167 343.1 399.767C343.7 395.967 344 380.067 343.8 361.967C343.5 326.667 343.1 324.967 335.6 318.367C330.5 313.867 328.2 313.167 319.1 313.167C311.3 313.167 311.2 313.167 310 310.167C308.2 305.767 300.8 299.667 295.5 298.167C292.7 297.367 288.8 297.167 285.1 297.567C279.4 298.267 279.2 298.167 278.6 295.567C278.2 294.167 275.9 290.867 273.4 288.167C268.3 282.667 262.8 280.667 255 281.367C250.4 281.867 250 281.667 250 279.767C250 277.967 251.7 276.967 259.8 273.667C265.1 271.567 272.5 267.667 276.2 264.967C290.3 254.767 303.2 237.067 308.8 220.667C311.3 213.267 311.4 211.467 311.5 195.667C311.5 180.567 311.2 177.867 309.2 171.167C306 161.267 300 149.467 295.3 144.167C293.2 141.767 290 138.167 288.2 136.067C283.2 130.467 269.3 120.167 262.4 117.067C251.3 111.967 242.5 110.067 229 109.667C220.7 109.367 214.3 109.667 210 110.567ZM255.9 166.767C260.3 172.367 257.3 177.867 243.8 188.767C243.1 189.367 238.4 194.167 233.3 199.467C223.7 209.667 220.6 211.767 216.8 210.867C215.5 210.467 210.1 205.767 204.7 200.367C194.1 189.567 193 186.967 197.2 182.467C200.9 178.467 204.9 179.367 212.4 185.767L219 191.367L222 188.767C223.7 187.367 229.8 181.267 235.6 175.167C245.5 164.967 246.5 164.167 250 164.167C253 164.167 254.3 164.767 255.9 166.767Z" fill="black"/>
<path d="M80.5 127.667C78.4 129.667 78 131.067 78 135.667V141.167H72.7C65.4 141.167 63 143.067 63 148.667C63 152.567 63.4 153.267 66 154.667C67.6 155.467 70.9 156.167 73.5 156.167H78V161.667C78 167.667 79.8 170.567 84.5 171.767C89.7 173.067 94 167.867 94 160.067V156.167H98.8C102.6 156.167 104.1 155.667 105.7 153.867C108.5 150.767 109.2 148.367 107.8 145.867C106 142.367 103.8 141.267 98.8 141.167H94V136.667C94 131.167 92.5 127.667 89.3 126.267C85.6 124.567 83.1 124.967 80.5 127.667Z" fill="black"/>
<path d="M346.5 158.667C343.3 161.767 343.2 166.167 346.3 168.867C349.8 172.067 352.4 172.467 355.2 170.167C358.6 167.567 359.4 163.867 357.6 160.267C355.1 155.467 350.3 154.767 346.5 158.667Z" fill="black"/>
<path d="M111.5 221.667C108.4 224.667 108.3 228.167 111.3 230.867C115.8 234.967 120.4 234.467 123.6 229.667C125 227.567 125 226.667 124 224.167C121.7 218.667 115.6 217.467 111.5 221.667Z" fill="black"/>
<path d="M408.5 252.667C405.2 255.867 405.2 260.067 408.5 263.167C415 269.267 424.6 262.167 420.6 254.267C418.1 249.467 412.4 248.667 408.5 252.667Z" fill="black"/>
</svg>
