<svg width="132" height="200" viewBox="0 0 132 200" fill="none" xmlns="http://www.w3.org/2000/svg">
<path d="M12.7086 3.25882C2.59357 14.6983 -1.5992 31.1965 1.17851 48.2696C1.49297 49.9942 1.91224 51.9486 2.17429 52.581C2.38393 53.2133 2.90803 54.6504 3.22248 55.7427C3.95622 57.8696 7.25803 65.2852 7.99176 66.3199C8.2014 66.6648 9.66887 68.6193 11.2412 70.6888C13.8092 74.1379 14.2285 74.4253 16.0628 74.4253C17.8448 74.4253 18.2116 74.1954 18.6309 72.8157C18.9978 71.781 18.9978 70.9187 18.6833 70.4588C18.3689 70.0564 17.0062 68.1019 15.5387 66.1474C9.93092 58.387 6.94357 50.1091 6.47188 40.9115C6.20983 34.8756 7.1008 25.563 7.99176 24.9307C8.25381 24.7582 8.46345 24.1834 8.46345 23.666C8.46345 22.5163 12.6562 13.3762 14.0189 11.4792C14.5954 10.7319 15.3815 9.75463 15.8008 9.23727C19.155 5.32829 19.6267 3.60373 17.8972 1.70673C16.3249 -0.0178223 15.3815 0.2696 12.7086 3.25882Z" fill="black"/>
<path d="M83.9853 2.05181C82.5702 4.0063 82.6227 4.81109 84.1425 6.42067C90.7462 13.3764 95.9871 27.5177 95.9871 38.1524C95.9871 42.3488 94.4148 50.2818 92.8425 54.3057C91.0606 58.847 90.0124 61.1464 89.3835 62.0662C89.0166 62.5261 87.4968 64.5955 85.9769 66.6075C82.2034 71.6662 82.2558 74.6554 86.0817 74.7129C87.916 74.7129 88.807 73.7356 93.5239 66.9524C96.3016 62.9285 99.4986 54.7656 100.756 48.7297C101.071 47.0626 101.438 42.6362 101.595 38.9572C101.805 33.3812 101.647 31.3117 100.704 27.1728C99.551 21.8841 96.354 12.974 95.201 11.6518C94.7817 11.2494 94.31 10.3871 94.1528 9.75481C93.9956 9.12247 93.6287 8.6051 93.3666 8.6051C93.1046 8.6051 92.7901 8.14523 92.6329 7.57037C92.1612 5.96079 87.0775 0.557198 86.0293 0.557198C85.5052 0.557198 84.5618 1.24702 83.9853 2.05181Z" fill="black"/>
<path d="M23.0861 14.181C16.1156 22.5738 13.5475 32.8062 15.277 44.7056C15.5915 46.7175 16.0632 48.787 16.3252 49.3044C16.5873 49.8217 17.2686 51.4888 17.8451 53.0409C19.0505 56.1451 23.2433 62.3535 24.7108 63.2157C26.021 64.0205 28.2746 63.3882 28.9035 62.066C29.5325 60.8014 28.7987 58.272 27.4361 56.8349C25.0252 54.2481 23.8722 52.1211 21.9855 46.7175C20.3608 41.9463 20.3084 33.7834 21.9855 29.1271C23.7674 24.0684 25.0776 21.4241 27.174 18.8948C29.1132 16.5379 29.5325 14.4684 28.3794 12.9164C27.174 11.3643 25.0252 11.8816 23.0861 14.181Z" fill="black"/>
<path d="M73.8183 13.0887C72.4033 14.8132 72.7701 16.3653 75.2858 19.5845C76.5961 21.2515 77.6442 22.8611 77.6442 23.206C77.6442 23.4935 78.0111 24.1833 78.4304 24.7006C79.531 26.0228 81.3129 34.0707 81.3129 37.5773C81.3129 42.1186 80.0027 47.8671 78.1159 51.5462C77.1726 53.3857 76.2816 54.9953 76.1244 55.1677C75.9147 55.3402 75.1286 56.3174 74.3424 57.3521C72.5605 59.824 72.5081 61.721 74.29 63.0432C75.5479 63.9629 75.7575 63.9629 77.4346 62.9282C78.4304 62.3533 79.7406 60.9162 80.3696 59.824C80.9985 58.6743 81.837 57.4096 82.2039 57.0072C83.4093 55.6276 85.4533 50.339 86.3443 46.2575C87.5497 40.624 87.1304 30.9665 85.5057 25.8503C84.8244 23.7809 84.0906 21.9989 83.881 21.9414C83.619 21.8264 83.4093 21.424 83.4093 21.0216C83.4093 20.2168 79.0593 13.836 77.8015 12.7438C76.5436 11.7665 74.8141 11.8815 73.8183 13.0887Z" fill="black"/>
<path d="M45.8837 27.8623C44.3639 28.5521 42.1627 30.2767 40.9572 31.5988C36.9217 36.0251 37.0789 34.1856 37.2362 71.091C37.341 91.9006 37.1837 104.03 36.8693 104.03C36.6072 104.03 36.0307 103.628 35.6639 103.053C34.2488 101.213 26.4922 95.2347 22.8759 93.2802C19.8361 91.6132 18.4735 91.2108 15.0145 90.9808C9.98314 90.6934 8.09639 91.5557 5.37109 95.4647C3.64157 97.9365 3.64157 98.0515 3.90362 102.593C4.11326 106.042 4.58494 108.226 5.84277 111.503C6.78615 113.86 7.72952 115.872 7.99157 115.987C8.25362 116.102 8.46326 116.447 8.46326 116.677C8.46326 117.194 12.9181 125.529 13.8614 126.737C14.0711 127.024 15.3289 129.093 16.5868 131.335C17.897 133.52 19.1548 135.647 19.4693 136.049C19.7313 136.394 21.094 138.636 22.4566 140.935C23.8193 143.235 25.1295 145.362 25.3392 145.707C26.1777 146.856 28.1693 150.363 29.4271 152.892C30.1608 154.329 30.8946 155.594 31.0518 155.766C31.209 155.939 32.2572 157.836 33.4102 160.078C34.5109 162.262 35.7163 164.619 36.0831 165.251C36.45 165.884 36.8693 166.804 37.0789 167.263C37.2886 167.723 38.4416 169.678 39.5946 171.575C45.9362 181.692 54.7934 190.487 62.288 194.051C63.9651 194.799 65.7994 195.719 66.3759 196.006C67.8958 196.753 73.2416 198.305 76.3337 198.88C79.7928 199.513 89.4362 199.513 92.0566 198.88C105.369 195.719 115.012 189.05 122.507 178.013C124.865 174.507 128.114 167.608 128.796 164.677C129.005 163.699 129.32 162.665 129.53 162.377C129.739 162.032 130.263 159.963 130.63 157.778C131.207 154.789 131.364 148.006 131.364 130.76C131.364 104.547 131.521 105.467 126.909 100.581C124.97 98.5114 123.66 97.6491 121.616 97.1317C118.366 96.2695 113.23 96.6719 111.448 97.9365C109.561 99.3162 109.247 99.0862 108.88 96.2695C108.408 92.8204 105.683 88.624 102.539 86.497C100.18 84.8874 99.6036 84.7725 95.2536 84.7725C91.2181 84.7725 90.2223 85.0024 88.65 86.0946C86.344 87.6467 85.6627 87.7042 85.2434 86.1521C85.0337 85.5198 84.1428 84.1401 83.1994 83.0479C79.5307 78.909 73.7133 77.1844 69.2584 79.024C64.5416 80.921 65.0133 82.4156 65.2229 66.0323C65.3801 53.3856 65.5374 50.8563 66.4807 47.2347C67.5289 43.3832 67.5289 42.8659 66.7952 39.7617C65.9042 35.8527 63.6506 31.7713 61.397 29.9892C56.7325 26.1952 50.7578 25.3904 45.8837 27.8623ZM54.9506 43.0958C56.7325 43.9581 57.4139 44.7629 58.5145 47.1772L59.8247 50.224V82.3006V114.377H62.1831H64.5416V103.857C64.5416 95.982 64.7512 92.6479 65.3277 90.7509C67.5813 83.5078 76.7006 82.2431 80.3169 88.7389C81.1554 90.291 81.3127 91.7281 81.3127 99.5461V108.629H84.1952H87.0777V102.938C87.0777 96.6719 87.5494 95.1772 90.2223 92.5329C93.3669 89.4287 97.9265 89.7162 101.333 93.2228C103.325 95.2922 103.849 98.109 103.849 106.732V114.377H106.469H109.09V112.135C109.09 109.146 109.666 107.594 111.553 105.352C113.545 103.053 116.951 101.96 119.572 102.823C121.878 103.57 124.551 106.099 125.284 108.284C126.228 110.928 126.018 149.903 125.075 155.996C124.655 158.756 124.079 161.4 123.817 161.975C123.555 162.492 122.454 164.907 121.406 167.263C117.423 176.059 111.029 183.474 103.744 187.671C93.2621 193.764 82.6229 195.029 71.3548 191.637C64.9608 189.683 55.5271 183.302 51.7536 178.358C51.0723 177.438 49.6572 175.714 48.609 174.449C46.7747 172.322 39.909 161.457 39.909 160.768C39.909 160.595 39.2277 159.273 38.3368 157.893C37.4982 156.456 36.7645 155.134 36.7645 154.962C36.7645 154.732 36.5024 154.272 36.2404 153.869C35.3494 152.662 29.5319 142.66 28.5886 140.763C28.1169 139.728 27.2783 138.406 26.7542 137.774C26.2301 137.084 25.7584 136.279 25.7584 135.877C25.7584 135.474 25.6012 135.072 25.3916 134.957C24.8151 134.727 22.0898 130.071 22.0898 129.381C22.0898 129.093 21.9325 128.749 21.7229 128.634C21.4608 128.519 20.3602 126.909 19.2596 125.012C11.8699 112.71 8.98735 106.272 8.98735 102.19C8.98735 96.327 15.0669 94.7174 21.3036 98.9713C26.859 102.823 32.6765 107.996 37.9699 113.86C40.1711 116.389 42.2675 118.401 42.5295 118.401C42.8964 118.401 43.0536 105.984 43.0536 83.0479V47.7521L44.7307 45.6252C47.7181 41.8886 50.9675 41.0838 54.9506 43.0958Z" fill="black"/>
</svg>
