<svg width="50" height="50" viewBox="0 0 27 23" fill="none" xmlns="http://www.w3.org/2000/svg">
<path d="M4.12822 10.7158V12.2841C4.12822 13.0784 3.40905 13.7216 2.52114 13.7216C1.63323 13.7216 0.914062 13.0784 0.914062 12.2841V10.7158C0.914062 9.9216 1.63323 9.27832 2.52114 9.27832C3.40905 9.27832 4.12822 9.9216 4.12822 10.7158Z" fill="black"/>
<path d="M23.4149 10.7568C23.4149 10.7446 23.4141 10.7302 23.4141 10.7158C23.4141 9.9216 24.1332 9.27832 25.0211 9.27832C25.9091 9.27832 26.6282 9.9216 26.6282 10.7158C26.6282 10.7295 26.6282 10.7431 26.6274 10.7568H26.6282V12.3251H26.6274C26.6033 13.0999 25.893 13.7216 25.0211 13.7216C24.1493 13.7216 23.439 13.0999 23.4149 12.3251H23.4141V10.7568H23.4149Z" fill="black"/>
<path d="M9.68095 15.4209V16.9892C9.68095 17.7834 8.96179 18.4267 8.07388 18.4267C7.18596 18.4267 6.4668 17.7834 6.4668 16.9892V15.4209C6.4668 14.6267 7.18596 13.9834 8.07388 13.9834C8.96179 13.9834 9.68095 14.6267 9.68095 15.4209ZM9.68095 6.01172V11.1407H9.68015C9.66086 11.9198 8.94893 12.5459 8.07388 12.5459C7.19882 12.5459 6.48689 11.9198 6.4676 11.1407H6.4668V6.01172C6.4668 5.2175 7.18596 4.57422 8.07388 4.57422C8.96179 4.57422 9.68095 5.2175 9.68095 6.01172Z" fill="black"/>
<path d="M17.8613 7.57905C17.8613 8.37327 18.5805 9.01655 19.4684 9.01655C20.3563 9.01655 21.0755 8.37327 21.0755 7.57905V6.01074C21.0755 5.21652 20.3563 4.57324 19.4684 4.57324C18.5805 4.57324 17.8613 5.21652 17.8613 6.01074V7.57905Z" fill="black"/>
<path d="M12.1641 3.00581C12.1641 3.79931 12.8832 4.44331 13.7711 4.44331C14.6591 4.44331 15.3782 3.79931 15.3782 3.00581V1.4375C15.3782 0.643281 14.6591 0 13.7711 0C12.8832 0 12.1641 0.643281 12.1641 1.4375V3.00581ZM12.1641 19.9942C12.1641 19.2 12.8832 18.5567 13.7711 18.5567C14.6591 18.5567 15.3782 19.2 15.3782 19.9942V21.5625C15.3782 22.3567 14.6591 23 13.7711 23C12.8832 23 12.1641 22.3567 12.1641 21.5625V19.9942Z" fill="black"/>
<path d="M17.8613 11.8916C17.8613 11.0974 18.5805 10.4541 19.4684 10.4541C20.3563 10.4541 21.0755 11.0974 21.0755 11.8916V16.9883C21.0755 17.7825 20.3563 18.4258 19.4684 18.4258C18.5805 18.4258 17.8613 17.7825 17.8613 16.9883V11.8916Z" fill="black"/>
<path d="M15.3782 7.31836V15.6817C15.3782 16.476 14.6591 17.1192 13.7711 17.1192C12.8832 17.1192 12.1641 16.476 12.1641 15.6817V7.31836C12.1641 6.52414 12.8832 5.88086 13.7711 5.88086C14.6591 5.88086 15.3782 6.52414 15.3782 7.31836Z" fill="black"/>
</svg>
