<svg width="19" height="19" viewBox="0 0 19 19" fill="none" xmlns="http://www.w3.org/2000/svg">
<path d="M9.22967 18.1357C8.46229 17.8906 8.29836 17.5571 7.98338 15.6028C7.61777 13.3309 7.53741 11.925 7.74955 11.4794C8.03079 10.8893 8.79334 10.5543 9.86044 10.55C10.9187 10.5464 11.6885 10.8842 11.9713 11.4794C12.1843 11.9243 12.1039 13.3309 11.7383 15.6028C11.49 17.1898 11.3526 17.5909 11.0095 17.8604C10.5378 18.2335 9.86928 18.337 9.23529 18.1364L9.22967 18.1357ZM5.95283 15.8048C3.30437 14.6397 1.60729 12.6675 0.990177 10.044C0.835897 9.36697 0.810184 7.75194 0.955625 7.13094C1.34132 5.46344 2.07817 4.15963 3.30437 3.00603C5.06974 1.34069 7.34135 0.460938 9.87009 0.460938C12.3731 0.460938 14.6359 1.32488 16.3587 2.94062C17.67 4.15963 18.4069 5.44978 18.7845 7.14962C18.9131 7.71528 18.9131 9.25772 18.7934 9.89453C18.3988 11.9063 17.1477 13.7384 15.3221 14.9696C14.6704 15.4095 13.0762 16.1778 12.8191 16.1778C12.7251 16.1778 12.7162 16.0902 12.7588 15.7372C12.8359 15.1702 12.9131 15.0516 13.2731 14.9172C13.8476 14.7023 14.8247 14.0798 15.4241 13.5415C16.4615 12.6215 17.2241 11.4176 17.5752 10.1526C17.7978 9.36266 17.7721 7.60747 17.5238 6.79456C16.7436 4.21066 14.3868 2.20247 11.4981 1.66556C10.6584 1.51247 9.13244 1.51247 8.2839 1.66556C5.36143 2.20247 2.94438 4.31056 2.20673 6.96347C2.00987 7.68437 2.00987 9.43956 2.20673 10.1605C2.69529 11.9164 3.96407 13.5264 5.6266 14.4845C5.95203 14.6764 6.34657 14.8755 6.50969 14.9366C6.86967 15.0746 6.94681 15.1896 7.01511 15.7567C7.0577 16.1017 7.04966 16.2016 6.95485 16.2016C6.89458 16.2016 6.45746 16.0327 5.99462 15.8336L5.95283 15.8048ZM5.98739 12.6862C5.09626 12.0501 4.30719 10.9216 3.98175 9.81403C3.78489 9.14559 3.78489 7.87413 3.99059 7.20713C4.53057 5.40666 6.0131 4.01156 8.07016 3.35606C8.77326 3.13397 10.3329 3.08366 11.1983 3.25472C14.1811 3.84912 16.2984 6.52072 15.887 9.17075C15.7239 10.2388 15.3125 11.1157 14.5844 11.9307C14.2245 12.3426 13.3502 13.0333 13.1959 13.0333C13.1702 13.0333 13.1445 12.7724 13.1445 12.4554V11.8761L13.5905 11.401C15.2707 9.60056 15.1501 7.08637 13.3165 5.43612C12.6053 4.79356 11.7825 4.41622 10.7194 4.24228C10.034 4.12872 9.88776 4.12872 9.16779 4.23438C8.07498 4.39394 7.22805 4.77272 6.47674 5.43828C4.63423 7.07128 4.5137 9.59912 6.1939 11.4003L6.63584 11.8754V12.4583C6.63584 12.7803 6.60772 13.0412 6.57236 13.0412C6.53781 13.0412 6.28952 12.8881 6.02354 12.6962L5.98739 12.6862ZM8.96128 9.556C8.19873 9.23831 7.78731 8.63959 7.77847 7.85903C7.77847 7.15753 8.2156 6.54588 8.97012 6.18794C9.44984 5.96225 10.2984 5.96225 10.7789 6.18938C11.302 6.43231 11.7303 6.90381 11.8934 7.39616C12.3908 8.90769 10.5989 10.2331 8.97896 9.556H8.96128Z" fill="black"/>
</svg>
