<svg width="238" height="239" viewBox="0 0 238 239" fill="none" xmlns="http://www.w3.org/2000/svg">
<path d="M113.193 0.553909C70.5218 2.4325 31.8703 27.6295 12.5445 66.1556C6.52936 78.1428 2.47959 91.7999 0.722696 106.083C0.0973628 111.093 0.186696 128.447 0.871585 133.666C4.29603 160.026 15.4627 183.344 33.5378 201.921C38.3916 206.901 42.2627 210.36 47.0867 214.028C64.1196 226.969 83.5943 234.782 105.6 237.466C111.704 238.241 126.057 238.241 132.102 237.495C159.2 234.126 182.695 222.974 201.604 204.486C211.877 194.437 219.024 184.597 225.396 171.834C231.262 160.056 234.776 148.307 236.801 133.815C237.426 129.133 237.694 114.552 237.248 109.304C235.64 91.7105 230.577 75.3399 222.18 60.5795C205.207 30.85 176.412 9.82761 143.209 2.90961C137.968 1.8063 131.09 0.911728 126.415 0.673187C119.417 0.345169 118.136 0.315353 113.193 0.553909ZM125.253 2.90961C143.596 4.01291 158.426 8.30684 175.965 17.6104C176.412 17.8489 178.675 19.2206 180.968 20.6817C194.695 29.3888 206.487 40.8691 215.688 54.4964C220.483 61.6231 225.336 71.1652 228.374 79.5443C231.649 88.6391 233.793 98.1812 234.836 108.618C235.163 111.808 235.282 126.837 234.984 129.193C234.3 134.948 233.585 140.136 233.347 141.12C233.198 141.776 232.602 144.311 232.007 146.786C229.684 156.835 225.247 167.987 220.096 176.903C219.143 178.543 218.22 180.153 218.041 180.482C217.475 181.495 213.544 187.221 211.817 189.546C209.286 192.916 204.254 198.761 201.901 200.997L199.787 202.995L198.477 202.518C195.976 201.623 191.956 202.518 186.149 205.231C184.243 206.126 182.456 206.871 182.188 206.871C181.92 206.871 181.087 207.169 180.342 207.527C177.96 208.66 173.255 210.39 170.664 211.046C169.86 211.284 168.074 211.97 166.734 212.597C164.084 213.849 163.488 213.938 162.088 213.342C161.552 213.103 158.932 212.209 156.222 211.314L151.309 209.674L150.832 207.289C150.535 205.738 150.237 201.683 149.999 195.838C149.552 183.463 149.582 178.275 150.148 175.084C152.619 160.801 152.828 155.94 151.279 146.935C150.058 139.749 149.641 136.2 149.999 135.574C150.118 135.306 150.862 134.918 151.607 134.739C152.351 134.56 153.036 134.202 153.125 133.964C153.215 133.725 152.887 131.817 152.381 129.73C151.904 127.612 151.16 124.094 150.743 121.887C149.909 117.444 146.753 99.195 146.634 98.0619C146.544 97.4655 146.753 97.2866 148.182 96.7797C150.028 96.1535 151.875 96.064 153.84 96.5113C155.984 97.0182 157.235 96.899 160.153 95.9149L162.922 94.9905L166.793 95.2887C170.694 95.6167 172.6 95.4677 172.808 94.8414C172.898 94.6327 172.57 94.3942 172.094 94.3047C171.647 94.1854 170.992 94.0065 170.664 93.8574C170.188 93.6487 170.307 93.5891 171.2 93.5891C172.421 93.5592 173.493 93.112 173.493 92.6647C173.493 92.5156 172.928 92.2174 172.243 92.0385C171.349 91.7701 171.141 91.621 171.558 91.5614C172.749 91.3228 173.791 90.7861 173.791 90.3984C173.791 90.1301 173.196 89.981 171.647 89.9213L169.473 89.8319L170.694 89.1758C173.374 87.7445 172.064 86.4921 169.324 87.8936C168.669 88.2216 167.806 88.49 167.359 88.49H166.555L166.764 86.7009C166.883 85.7169 166.883 84.7626 166.793 84.5837C166.436 84.0172 165.513 85.2099 164.709 87.2973C163.696 89.9213 162.922 90.637 160.927 90.8159C158.962 90.965 155.001 90.0406 151.636 88.6689C150.267 88.1024 148.629 87.5656 147.974 87.506C147.319 87.4165 146.366 87.1482 145.86 86.8798C145.353 86.6114 144.788 86.4027 144.609 86.4027C144.4 86.4027 143.686 85.8958 142.971 85.2696C142.286 84.6732 140.38 83.4506 138.772 82.556C135.05 80.5284 134.068 79.7531 133.472 78.5007C132.936 77.3974 132.847 75.489 133.293 74.3558C133.442 73.9384 134.097 73.014 134.723 72.3281C136.956 69.883 137.045 68.9288 135.527 65.5294C134.961 64.2472 134.484 62.9352 134.484 62.6072C134.484 62.2195 134.097 61.7126 133.472 61.2951C131.745 60.1322 128.38 56.8521 128.231 56.1663C128.142 55.8383 127.874 55.5401 127.636 55.5102C127.1 55.5102 126.266 55.1822 125.194 54.6157C124.152 54.0491 123.973 54.0789 124.36 54.7648C124.807 55.5997 124.807 55.5997 123.199 55.7488C121.025 55.9575 117.035 58.1641 118.047 58.5816C118.345 58.7009 118.166 59.0587 117.422 59.834C116.856 60.4304 115.963 61.7126 115.427 62.6668L114.474 64.4559L114.831 67.4378C115.308 71.7914 115.605 72.507 117.72 74.8031C120.638 77.9937 120.221 78.4708 116.32 76.3537C114.206 75.2206 114.116 75.1908 106.047 75.3697C103.456 75.4293 102.205 75.31 100.091 74.7733C98.2747 74.326 95.952 74.0278 92.7956 73.8787C87.5547 73.6104 85.2023 73.1034 80.7058 71.195C76.4178 69.3761 73.9463 68.6306 70.1347 67.9149C63.9111 66.7818 63.4645 66.6924 61.5885 65.7978C60.0103 65.0225 59.2956 64.3665 56.7347 61.4144C55.0969 59.506 53.4591 57.4187 53.1614 56.7925C52.7743 56.047 52.3871 55.6892 52.0596 55.7488C51.2258 55.8979 51.2854 57.359 52.1489 58.85C52.5956 59.5954 52.8934 60.2813 52.804 60.3409C52.4169 60.7286 50.8685 59.9234 49.32 58.4921C48.3671 57.5976 47.1165 56.6732 46.5209 56.4346C45.4787 55.9874 45.4489 55.9874 45.4489 56.6732C45.4489 57.5081 46.0445 58.3729 47.6227 59.8638C48.3076 60.49 48.784 61.1162 48.6649 61.2355C48.3671 61.5337 46.7889 60.818 46.1338 60.1024C45.5085 59.4165 43.6027 58.3729 42.9178 58.3729C41.548 58.3729 43.2156 60.4602 45.8956 62.1002C48.3671 63.621 47.7418 64.0087 44.6747 62.8755C43.7218 62.5177 42.1734 62.8457 42.1734 63.4123C42.1734 63.8894 43.6325 64.5454 45.1511 64.7839C47.0867 65.0821 48.516 65.5592 48.2183 65.8276C48.0991 65.9767 47.3249 66.1556 46.4911 66.2749C44.8534 66.4836 43.5729 67.1695 43.7516 67.7062C43.9303 68.2728 45.0916 68.3026 47.8014 67.8851C50.1836 67.5273 50.4218 67.5273 52.1191 68.1833C53.1316 68.5411 55.1565 69.227 56.6156 69.7041C58.1045 70.1812 60.576 71.3441 62.1245 72.2387C65.3405 74.1471 71.9809 77.4272 76.5667 79.3952C79.0978 80.4687 80.3485 80.8265 83.0583 81.1844C84.8747 81.4229 87.1378 81.8702 88.0311 82.1982C91.0983 83.3015 99.9423 87.2376 101.759 88.3111C102.771 88.9075 104.2 89.5039 104.945 89.5933C105.898 89.7126 106.851 90.1897 108.131 91.1439C109.709 92.3068 110.216 92.933 111.407 95.1396C112.181 96.571 113.342 98.3899 113.997 99.1354C116.231 101.73 116.171 101.521 116.201 107.127C116.231 113.091 116.707 116.132 118.434 122.036C119.596 125.913 119.685 126.479 119.685 129.789C119.715 132.801 119.566 133.964 118.762 137.244C116.796 145.355 116.499 147.77 116.499 156.925C116.469 161.517 116.35 165.453 116.231 165.661C116.082 165.87 115.873 167.868 115.754 170.134C115.576 173.593 115.456 174.398 114.92 175.114C114.355 175.949 110.364 189.159 110.364 190.262C110.364 191.067 109.918 191.067 107.655 190.292C105.153 189.427 99.436 188.831 96.3689 189.129C93.7485 189.397 88.716 191.067 86.9889 192.23C84.8151 193.691 82.4925 194.795 79.0978 195.928C76.0605 196.942 74.0356 197.359 64.6556 198.969C62.2138 199.387 59.1765 199.953 57.9556 200.222C56.1094 200.609 54.4716 200.639 48.7245 200.49C44.8831 200.401 40.1485 200.222 38.2129 200.132L34.6991 199.923L32.4063 197.419C15.7009 179.02 5.18936 154.986 2.83692 129.789C2.09247 121.828 2.42003 110.049 3.64092 102.058C8.2267 71.851 24.2769 44.7456 48.4267 26.4368C49.8263 25.3931 51.0174 24.4687 51.1067 24.3793C51.3151 24.1407 58.3427 19.638 60.4867 18.3558C62.7498 16.9841 72.5765 12.1833 75.5245 11.0204C86.6316 6.54752 100.538 3.44635 111.407 2.99907C113.551 2.90961 115.337 2.79033 115.397 2.7307C115.635 2.52196 120.221 2.61142 125.253 2.90961ZM136.42 170.283C136.241 173.623 136.301 174.369 137.016 177.977C137.79 181.764 137.82 182.211 137.581 186.594C137.254 192.916 137.313 200.192 137.7 201.802C137.879 202.518 137.968 203.174 137.909 203.263C137.82 203.323 137.254 203.054 136.658 202.637C136.033 202.22 134.455 201.265 133.144 200.55C131.834 199.804 129.958 198.701 129.005 198.105C128.023 197.508 127.07 197.031 126.861 197.031C126.653 197.031 126.415 196.912 126.296 196.763C126.028 196.315 127.874 185.7 128.708 182.778C129.601 179.647 130.584 177.47 132.728 173.921C133.621 172.43 134.812 170.194 135.378 168.942C135.944 167.659 136.48 166.646 136.539 166.616C136.599 166.616 136.539 168.286 136.42 170.283Z" fill="black"/>
</svg>
