<svg width="388" height="379" viewBox="0 0 388 379" fill="none" xmlns="http://www.w3.org/2000/svg">
<path d="M185.032 0.951477C115.452 3.9371 52.4267 43.9824 20.9141 105.211C11.1059 124.262 4.50233 145.967 1.63755 168.668C0.617886 176.629 0.763553 204.211 1.88033 212.504C7.46422 254.398 25.6726 291.457 55.1458 320.982C63.0603 328.896 69.3726 334.393 77.2386 340.223C105.012 360.79 136.768 373.207 172.65 377.472C182.604 378.704 206.008 378.704 215.865 377.519C260.05 372.164 298.361 354.44 329.193 325.057C345.945 309.087 357.598 293.448 367.989 273.164C377.555 254.445 383.284 235.773 386.586 212.741C387.606 205.301 388.043 182.127 387.314 173.786C384.692 145.825 376.438 119.808 362.745 96.3492C335.069 49.1006 288.115 15.69 233.976 4.69537C225.43 2.94189 214.214 1.52017 206.591 1.14105C195.18 0.619751 193.092 0.572357 185.032 0.951477ZM204.697 4.69537C234.607 6.44882 258.788 13.2731 287.387 28.0591C288.115 28.4382 291.806 30.6182 295.544 32.9403C317.928 46.7784 337.156 65.0239 352.16 86.6815C359.978 98.0079 367.892 113.173 372.845 126.49C378.186 140.944 381.682 156.109 383.381 172.696C383.915 177.767 384.11 201.652 383.624 205.396C382.507 214.542 381.342 222.788 380.954 224.352C380.711 225.395 379.74 229.423 378.769 233.356C374.981 249.327 367.746 267.051 359.346 281.221C357.793 283.827 356.287 286.387 355.996 286.908C355.073 288.519 348.664 297.618 345.848 301.315C341.721 306.67 333.515 315.958 329.679 319.513L326.231 322.688L324.095 321.93C320.016 320.508 313.461 321.93 303.993 326.242C300.885 327.664 297.972 328.849 297.535 328.849C297.098 328.849 295.739 329.323 294.525 329.891C290.64 331.692 282.968 334.441 278.744 335.483C277.433 335.863 274.52 336.953 272.335 337.948C268.013 339.938 267.042 340.08 264.76 339.133C263.886 338.753 259.613 337.332 255.195 335.91L247.183 333.303L246.406 329.512C245.921 327.048 245.435 320.603 245.047 311.314C244.318 291.647 244.367 283.401 245.289 278.33C249.319 255.63 249.659 247.905 247.134 233.593C245.144 222.172 244.464 216.532 245.047 215.537C245.241 215.111 246.455 214.495 247.669 214.21C248.882 213.926 249.999 213.357 250.145 212.978C250.291 212.599 249.756 209.566 248.931 206.249C248.154 202.884 246.94 197.292 246.26 193.785C244.901 186.724 239.754 157.72 239.56 155.92C239.414 154.972 239.754 154.687 242.085 153.882C245.095 152.887 248.106 152.744 251.31 153.455C254.806 154.261 256.846 154.071 261.604 152.507L266.12 151.038L272.432 151.512C278.793 152.033 281.9 151.797 282.24 150.801C282.386 150.47 281.852 150.09 281.075 149.948C280.346 149.759 279.278 149.474 278.744 149.237C277.967 148.906 278.161 148.811 279.618 148.811C281.609 148.764 283.357 148.053 283.357 147.342C283.357 147.105 282.434 146.631 281.318 146.347C279.861 145.92 279.521 145.683 280.201 145.588C282.143 145.209 283.842 144.356 283.842 143.74C283.842 143.314 282.871 143.077 280.346 142.982L276.802 142.84L278.793 141.797C283.163 139.522 281.026 137.532 276.559 139.759C275.491 140.281 274.083 140.707 273.354 140.707H272.043L272.383 137.864C272.578 136.3 272.578 134.783 272.432 134.499C271.849 133.598 270.344 135.494 269.033 138.811C267.382 142.982 266.12 144.119 262.866 144.404C259.662 144.641 253.204 143.171 247.717 140.991C245.484 140.091 242.813 139.238 241.745 139.143C240.677 139.001 239.123 138.574 238.297 138.148C237.472 137.721 236.549 137.39 236.258 137.39C235.918 137.39 234.753 136.584 233.587 135.589C232.471 134.641 229.363 132.698 226.741 131.276C220.672 128.054 219.069 126.822 218.098 124.831C217.224 123.078 217.079 120.045 217.807 118.244C218.05 117.58 219.118 116.111 220.138 115.021C223.779 111.135 223.925 109.619 221.449 104.216C220.526 102.178 219.749 100.093 219.749 99.5718C219.749 98.9557 219.118 98.1501 218.098 97.4866C215.282 95.6384 209.795 90.4254 209.552 89.3354C209.407 88.8141 208.97 88.3402 208.581 88.2928C207.707 88.2928 206.348 87.7715 204.6 86.8711C202.9 85.9706 202.609 86.018 203.24 87.108C203.969 88.435 203.969 88.435 201.347 88.6719C197.802 89.0037 191.296 92.5106 192.946 93.1741C193.432 93.3636 193.141 93.9323 191.927 95.1645C191.004 96.1123 189.548 98.1501 188.674 99.6666L187.12 102.51L187.702 107.249C188.479 114.168 188.965 115.306 192.412 118.955C197.171 124.025 196.491 124.784 190.13 121.419C186.683 119.618 186.537 119.571 173.379 119.855C169.154 119.95 167.115 119.76 163.667 118.907C160.706 118.196 156.918 117.723 151.771 117.486C143.226 117.059 139.39 116.253 132.058 113.22C125.066 110.33 121.036 109.145 114.821 108.007C104.672 106.207 103.944 106.064 100.885 104.643C98.3117 103.41 97.1463 102.368 92.9706 97.6762C90.3 94.6432 87.6294 91.3258 87.1439 90.3306C86.5127 89.1458 85.8814 88.5771 85.3473 88.6719C83.9878 88.9089 84.0849 91.231 85.493 93.6006C86.2213 94.7853 86.7069 95.8753 86.5612 95.9701C85.93 96.5862 83.4051 95.3066 80.8802 93.0319C79.3264 91.6102 77.2871 90.1411 76.316 89.7619C74.6166 89.0511 74.568 89.0511 74.568 90.1411C74.568 91.468 75.5391 92.8423 78.1126 95.2119C79.2293 96.2071 80.0062 97.2023 79.812 97.3918C79.3264 97.8658 76.753 96.7284 75.6848 95.591C74.6651 94.501 71.5576 92.8423 70.4408 92.8423C68.2072 92.8423 70.9263 96.1597 75.2963 98.7662C79.3264 101.183 78.3068 101.799 73.3056 99.9984C71.7518 99.4297 69.2269 99.951 69.2269 100.851C69.2269 101.61 71.6061 102.652 74.0825 103.031C77.2386 103.505 79.5692 104.264 79.0837 104.69C78.8895 104.927 77.627 105.211 76.2674 105.401C73.5969 105.733 71.509 106.823 71.8003 107.676C72.0917 108.576 73.9853 108.623 78.4039 107.96C82.2883 107.391 82.6768 107.391 85.4445 108.434C87.0953 109.003 90.3971 110.093 92.7763 110.851C95.2041 111.609 99.2342 113.457 101.759 114.879C107.003 117.912 117.831 123.125 125.309 126.253C129.436 127.959 131.475 128.528 135.894 129.096C138.856 129.475 142.546 130.186 144.002 130.708C149.004 132.461 163.425 138.717 166.387 140.423C168.037 141.371 170.368 142.318 171.582 142.461C173.136 142.65 174.69 143.408 176.777 144.925C179.351 146.773 180.176 147.768 182.119 151.275C183.381 153.55 185.275 156.441 186.343 157.626C189.985 161.749 189.887 161.417 189.936 170.326C189.985 179.805 190.761 184.638 193.578 194.022C195.471 200.183 195.617 201.083 195.617 206.343C195.666 211.13 195.423 212.978 194.112 218.191C190.907 231.081 190.422 234.92 190.422 249.469C190.373 256.767 190.179 263.023 189.985 263.355C189.742 263.686 189.402 266.861 189.208 270.463C188.916 275.961 188.722 277.24 187.848 278.377C186.926 279.704 180.419 300.699 180.419 302.452C180.419 303.732 179.691 303.732 176.001 302.499C171.922 301.125 162.599 300.177 157.598 300.651C153.325 301.078 145.119 303.732 142.303 305.58C138.758 307.902 134.971 309.655 129.436 311.456C124.483 313.068 121.181 313.731 105.886 316.29C101.905 316.954 96.9521 317.854 94.9613 318.281C91.9509 318.897 89.2803 318.944 79.9091 318.707C73.6454 318.565 65.9251 318.281 62.769 318.138L57.0394 317.807L53.3007 313.826C26.061 284.586 8.92089 246.389 5.085 206.343C3.87111 193.69 4.40522 174.971 6.396 162.27C13.8736 114.263 40.045 71.1847 79.4236 42.0867C81.7057 40.4281 83.6479 38.959 83.7936 38.8168C84.1335 38.4377 95.5926 31.2816 99.0886 29.2438C102.779 27.0638 118.802 19.4339 123.609 17.5857C141.72 10.4771 164.396 5.5484 182.119 4.83752C185.615 4.69537 188.528 4.5058 188.625 4.41101C189.013 4.07928 196.491 4.22147 204.697 4.69537ZM222.905 270.7C222.614 276.008 222.711 277.193 223.876 282.927C225.139 288.946 225.187 289.656 224.799 296.623C224.265 306.67 224.362 318.233 224.993 320.792C225.284 321.93 225.43 322.972 225.333 323.114C225.187 323.209 224.265 322.783 223.294 322.119C222.274 321.456 219.701 319.939 217.564 318.802C215.428 317.617 212.369 315.864 210.815 314.916C209.213 313.968 207.659 313.21 207.319 313.21C206.979 313.21 206.591 313.02 206.396 312.783C205.959 312.072 208.97 295.201 210.329 290.557C211.786 285.581 213.388 282.121 216.884 276.482C218.341 274.112 220.283 270.558 221.206 268.568C222.128 266.53 223.002 264.918 223.099 264.871C223.197 264.871 223.099 267.525 222.905 270.7Z" fill="black"/>
</svg>
