<svg width="261" height="238" viewBox="0 0 261 238" fill="none" xmlns="http://www.w3.org/2000/svg">
<path d="M196.914 22.1837L182.487 35.1841L201.976 52.85L201.977 52.85C207.439 57.8044 212.456 62.3124 216.142 65.5813C217.985 67.216 219.495 68.5395 220.56 69.4536C221.093 69.9111 221.512 70.2635 221.805 70.5004C221.89 70.5691 221.963 70.6267 222.024 70.6735C222.078 70.6355 222.141 70.5888 222.215 70.5329C222.487 70.3278 222.867 70.0219 223.342 69.6252C224.29 68.8331 225.6 67.6957 227.157 66.319C230.269 63.5666 234.356 59.8673 238.477 56.0834C242.599 52.2995 246.754 48.4329 250.003 45.3459C251.628 43.8022 253.025 42.455 254.078 41.4112C255.141 40.3565 255.823 39.6411 256.049 39.3411C258.576 35.9111 260.098 31.7574 260.437 26.8118L260.438 26.8081C261.167 17.1863 255.445 8.08308 245.652 3.38676L245.651 3.38648C239.547 0.449532 231.216 -0.325256 224.718 1.42619L224.623 1.45226C222.881 1.92595 221.61 2.27166 220.351 2.80629C219.077 3.3471 217.801 4.08778 216.08 5.36883C212.618 7.94577 207.423 12.655 196.915 22.1827L196.914 22.1837ZM221.85 70.7858C221.85 70.7855 221.852 70.7848 221.853 70.7839C221.843 70.7883 221.841 70.7902 221.85 70.7858Z" fill="black" stroke="black"/>
<path d="M116.628 65.5446L116.628 65.5443C135.668 48.107 145.481 39.1473 150.801 34.5456C153.467 32.2403 154.981 31.0493 155.953 30.4335C156.435 30.1281 156.764 29.9773 157.017 29.8996C157.262 29.8245 157.459 29.8107 157.699 29.8107C157.941 29.8107 158.137 29.8224 158.353 29.8748C158.571 29.9275 158.831 30.0269 159.185 30.2248C159.906 30.6276 160.961 31.4071 162.762 32.9243C166.354 35.9508 172.8 41.8143 185.256 53.1707C186.732 54.5178 188.148 55.8111 189.508 57.0528C205.808 71.9333 213.991 79.4044 218.097 83.426C220.333 85.6153 221.318 86.7428 221.754 87.4648C221.962 87.8092 222.033 88.0415 222.061 88.2418C222.083 88.4047 222.081 88.5457 222.077 88.7427C222.076 88.8271 222.074 88.9219 222.074 89.0331C222.074 90.7615 221.198 92.0894 219.91 92.7961C218.62 93.5045 216.882 93.6037 215.15 92.7814C214.845 92.6168 214.151 92.1235 213.248 91.4182C212.35 90.7164 211.28 89.8317 210.253 88.9211L210.252 88.9206L206.514 85.6173L206.178 85.3205L205.846 85.6219L186.695 103.03C183.55 105.881 178.655 110.324 172.634 115.788C158.501 128.614 138.164 147.071 119.693 163.801L119.693 163.801L72.1785 206.859L52.788 189.232C47.3828 184.304 42.4815 179.783 38.9393 176.469C37.1679 174.811 35.738 173.457 34.7553 172.505C34.2634 172.028 33.8867 171.655 33.6361 171.396C33.6161 171.376 33.5971 171.356 33.579 171.337C33.5878 171.329 33.5967 171.321 33.6058 171.312C33.8396 171.092 34.1848 170.77 34.6362 170.351C35.5389 169.514 36.8633 168.292 38.5643 166.726C41.9662 163.594 46.8724 159.09 52.9183 153.548C65.0101 142.465 81.6597 127.234 99.9484 110.534L116.628 65.5446ZM116.628 65.5446C105.845 75.4012 95.9832 84.5233 88.7744 91.279C85.1698 94.6571 82.2297 97.4423 80.17 99.4315C79.1398 100.426 78.332 101.22 77.7721 101.788C77.4918 102.073 77.2769 102.297 77.1284 102.461C77.0539 102.543 76.9999 102.605 76.9642 102.65C76.9527 102.664 76.9447 102.674 76.9395 102.681C76.3973 104.016 76.654 105.314 77.4599 106.294C78.2793 107.29 79.6962 107.986 81.495 107.986H83.7744L120.152 74.821C130.188 65.6709 139.362 57.3463 146.056 51.3091C149.403 48.2906 152.13 45.8432 154.036 44.1502C154.989 43.3039 155.737 42.6448 156.256 42.1967C156.514 41.9731 156.718 41.7997 156.863 41.6812C156.934 41.6227 156.996 41.5736 157.044 41.5376C157.067 41.5203 157.095 41.5004 157.123 41.4828C157.136 41.4745 157.159 41.4606 157.187 41.4471C157.19 41.4453 157.285 41.3949 157.412 41.3949C157.545 41.3949 157.654 41.4462 157.687 41.4613C157.74 41.4862 157.794 41.5171 157.844 41.5477C157.945 41.6099 158.066 41.695 158.202 41.7953C158.475 41.9972 158.835 42.2839 159.254 42.63C160.095 43.3235 161.192 44.2717 162.345 45.2964L162.347 45.2983L166.546 49.0736L166.956 49.4428L166.548 49.8149L99.9487 110.533L116.628 65.5446Z" fill="black" stroke="black"/>
<path d="M36.3398 226.523L36.3398 226.523L36.3449 226.521C36.6817 226.394 37.4902 226.097 38.6129 225.684C40.7326 224.905 43.9724 223.714 47.2733 222.483L47.276 222.482C53.1413 220.332 57.2272 218.751 59.8942 217.59C61.2292 217.009 62.1954 216.54 62.8474 216.163C63.1738 215.974 63.4092 215.815 63.569 215.684C63.6484 215.619 63.7029 215.566 63.7387 215.525C63.741 215.522 63.7433 215.519 63.7455 215.517C63.736 215.493 63.7213 215.461 63.6984 215.419C63.603 215.241 63.4137 214.975 63.0798 214.584C62.4165 213.808 61.2572 212.625 59.3667 210.813C55.5911 207.194 48.9543 201.117 37.6806 190.865C34.1156 187.641 30.8391 184.707 28.4257 182.578C27.2187 181.514 26.2294 180.653 25.5287 180.059C25.1777 179.761 24.9026 179.534 24.7102 179.382C24.6745 179.354 24.6425 179.329 24.614 179.307C24.5866 179.323 24.5562 179.342 24.5232 179.364C24.3733 179.462 24.2005 179.596 24.0499 179.732C24.0023 179.788 23.8925 179.949 23.7204 180.243C23.5461 180.54 23.3308 180.932 23.0883 181.394C22.6037 182.316 22.0177 183.502 21.4452 184.729C20.3006 187.181 19.0349 189.856 18.5654 190.767C17.4182 193.226 15.696 197.047 12.7682 203.85C11.3351 207.3 9.77879 210.823 9.30421 211.744C7.67332 215.11 5.46584 220.324 3.66454 224.91C2.76375 227.204 1.96675 229.335 1.3957 230.995C1.10997 231.825 0.882551 232.533 0.727172 233.081C0.564776 233.654 0.5 233.991 0.5 234.12C0.5 234.269 0.605062 234.559 0.896225 234.966C1.17163 235.35 1.56223 235.768 2.0046 236.156C2.44646 236.543 2.92572 236.888 3.37094 237.133C3.83106 237.386 4.19708 237.5 4.42848 237.5C4.42857 237.5 4.42944 237.5 4.43117 237.5L4.43933 237.5C4.44656 237.499 4.45628 237.498 4.46878 237.497C4.49404 237.494 4.52673 237.49 4.56754 237.484C4.6494 237.471 4.7543 237.451 4.88177 237.423C5.13642 237.369 5.4659 237.289 5.85329 237.188C6.62723 236.986 7.61664 236.704 8.66981 236.387C10.7787 235.753 13.1178 234.985 14.4776 234.443C14.9384 234.253 17.0594 233.498 19.743 232.544C20.8915 232.136 22.143 231.69 23.4116 231.237C31.7534 228.248 33.6442 227.568 36.3398 226.523ZM24.746 179.24C24.7459 179.24 24.7448 179.241 24.7427 179.241C24.7449 179.241 24.7461 179.24 24.746 179.24Z" fill="black" stroke="black"/>
</svg>
