<svg width="234" height="171" viewBox="0 0 234 171" fill="none" xmlns="http://www.w3.org/2000/svg">
<path d="M96.9943 1.4599C58.4343 10.4774 29.0323 43.4591 24.6943 82.4936C24.0918 87.9288 23.3688 90.2758 21.9228 90.7699C11.8008 93.9816 5.17332 99.5403 2.04032 107.446C-0.490184 113.499 -0.731184 144.875 1.67882 150.804C6.49882 162.416 15.2953 167.604 31.8038 168.592C41.3233 169.209 43.2513 168.962 45.0588 167.233C46.8663 165.257 47.1073 161.057 47.1073 124.616C47.1073 79.4054 47.5893 76.0702 55.1808 61.1234C67.2308 37.5298 90.4873 23.0771 116.274 23.0771C122.42 23.0771 129.891 23.6947 132.783 24.4359C153.388 30.1181 169.535 43.0885 178.934 61.494C186.405 75.9466 186.887 80.1466 186.887 124.863C186.887 171.186 186.285 168.962 197.612 168.962C214.723 168.962 224.242 164.515 230.267 153.769C233.762 147.469 233.882 147.098 233.882 129.681C233.882 110.164 232.798 105.717 226.532 99.0462C223.278 95.5874 218.217 92.7463 212.072 90.7699C210.626 90.2758 209.903 87.9288 209.3 82.4936C205.324 46.3002 179.296 14.8008 144.11 3.43633C133.265 -0.14595 108.201 -1.13417 96.9943 1.4599ZM133.626 10.2303C139.169 11.3421 147.484 14.4302 154.352 17.889C163.872 22.7065 167.487 25.3006 176.042 34.1945C190.382 49.0178 197.491 63.4704 200.745 84.5935C201.468 89.6581 201.468 89.9052 198.455 89.9052C195.684 89.9052 195.322 89.4111 195.322 85.8288C195.322 79.5289 191.948 67.9174 187.249 57.7882C183.995 50.7471 180.621 46.1767 173.15 38.518C156.642 21.5948 140.254 14.5538 117.479 14.4302C94.3433 14.3067 77.8348 21.2242 61.4468 38.0239C53.4938 46.1767 50.1198 50.6236 46.7458 57.7882C42.0463 67.9174 38.6723 79.5289 38.6723 85.8288C38.6723 89.4111 38.3108 89.9052 35.6598 89.9052C33.8523 89.9052 32.6473 89.164 32.6473 88.1758C32.6473 81.7524 37.1058 66.5586 41.8053 56.5529C46.5048 46.7943 49.1558 43.0885 57.8318 34.1945C66.5078 25.3006 70.1228 22.583 79.6423 17.889C97.8378 8.74799 114.708 6.40097 133.626 10.2303ZM37.4673 128.816V159.08H29.7553C21.4408 159.08 16.3798 156.61 11.6803 150.063C9.51132 146.975 9.14982 144.504 8.78832 130.669C8.42682 115.969 8.54732 114.24 11.0778 109.669C15.2953 102.011 21.0793 98.7991 31.8038 98.6756L37.4673 98.5521V128.816ZM216.048 102.011C218.338 103.493 221.35 106.828 222.917 109.669C225.447 114.24 225.568 115.846 225.206 130.669C224.845 144.504 224.483 146.975 222.314 150.063C217.615 156.61 212.554 159.08 204.239 159.08H196.527V128.693V98.1815L204.239 98.7991C209.059 99.2932 213.518 100.405 216.048 102.011Z" fill="black"/>
<path d="M54.5781 62.9678C53.4936 63.8325 53.1321 75.444 53.3731 117.072L53.7346 170.065L116.274 170.436C161.462 170.56 179.296 170.312 180.38 169.324C181.706 168.213 182.067 158.577 182.067 117.32C182.067 84.832 181.585 65.9324 180.862 64.3266C179.657 62.1031 178.091 61.9796 153.388 61.9796C129.891 61.9796 126.758 62.2266 121.938 64.4501C116.877 66.9206 116.515 66.9206 113.503 64.8207C110.731 62.8442 106.875 62.5972 83.2571 62.2266C68.3151 62.1031 55.4216 62.3501 54.5781 62.9678ZM110.008 73.9616C112.057 75.8145 112.177 78.6557 112.177 111.761C112.177 145.36 112.057 147.46 110.129 146.472C108.924 145.854 97.4761 145.237 84.8236 144.989L61.5671 144.619V108.302V71.8617H84.7031C104.465 71.8617 108.08 72.1087 110.008 73.9616ZM172.427 108.302V144.619L149.291 144.989C136.518 145.237 125.071 145.854 123.986 146.472C121.938 147.46 121.817 145.36 121.817 112.378C121.817 82.732 122.058 76.9263 123.745 74.5793C125.553 71.9852 126.155 71.8617 149.05 71.8617H172.427V108.302ZM106.996 156.107C112.298 162.16 112.78 162.036 86.3901 162.036H61.5671V157.713V153.389H83.0161C103.742 153.389 104.586 153.513 106.996 156.107ZM172.427 157.713V162.036H148.327C135.072 162.036 124.227 161.542 124.227 160.924C124.227 160.43 125.312 158.454 126.758 156.601L129.168 153.389H150.858H172.427V157.713Z" fill="black"/>
</svg>
