<svg width="35" height="34" viewBox="0 0 35 34" fill="none" xmlns="http://www.w3.org/2000/svg">
<path d="M16.5469 20.875H10.6992V19.7148L13.459 16.7734C13.8379 16.3594 14.1172 15.998 14.2969 15.6895C14.4805 15.3809 14.5723 15.0879 14.5723 14.8105C14.5723 14.4316 14.4766 14.1348 14.2852 13.9199C14.0938 13.7012 13.8203 13.5918 13.4648 13.5918C13.082 13.5918 12.7793 13.7246 12.5566 13.9902C12.3379 14.252 12.2285 14.5977 12.2285 15.0273H10.5293C10.5293 14.5078 10.6523 14.0332 10.8984 13.6035C11.1484 13.1738 11.5 12.8379 11.9531 12.5957C12.4062 12.3496 12.9199 12.2266 13.4941 12.2266C14.373 12.2266 15.0547 12.4375 15.5391 12.8594C16.0273 13.2812 16.2715 13.877 16.2715 14.6465C16.2715 15.0684 16.1621 15.498 15.9434 15.9355C15.7246 16.373 15.3496 16.8828 14.8184 17.4648L12.8789 19.5098H16.5469V20.875ZM23.332 17.3477C23.332 18.5273 23.0879 19.4297 22.5996 20.0547C22.1113 20.6797 21.3965 20.9922 20.4551 20.9922C19.5254 20.9922 18.8145 20.6855 18.3223 20.0723C17.8301 19.459 17.5781 18.5801 17.5664 17.4355V15.8652C17.5664 14.6738 17.8125 13.7695 18.3047 13.1523C18.8008 12.5352 19.5137 12.2266 20.4434 12.2266C21.373 12.2266 22.084 12.5332 22.5762 13.1465C23.0684 13.7559 23.3203 14.6328 23.332 15.7773V17.3477ZM21.6387 15.625C21.6387 14.918 21.541 14.4043 21.3457 14.084C21.1543 13.7598 20.8535 13.5977 20.4434 13.5977C20.0449 13.5977 19.75 13.752 19.5586 14.0605C19.3711 14.3652 19.2715 14.8438 19.2598 15.4961V17.5703C19.2598 18.2656 19.3535 18.7832 19.541 19.123C19.7324 19.459 20.0371 19.627 20.4551 19.627C20.8691 19.627 21.168 19.4648 21.3516 19.1406C21.5352 18.8164 21.6309 18.3203 21.6387 17.6523V15.625Z" fill="#070B24"/>
<path d="M21.645 27.7547C21.8224 28.1962 22.3287 28.4209 22.7619 28.2257C24.7386 27.335 26.4619 25.9844 27.7746 24.2894C29.2606 22.3707 30.1609 20.0876 30.3732 17.699C30.5855 15.3105 30.1014 12.9122 28.9759 10.7763C27.8503 8.64043 26.1284 6.85243 24.0054 5.61521C21.8824 4.37799 19.4434 3.74109 16.9651 3.77677C14.4868 3.81245 12.0685 4.51929 9.98452 5.81708C7.90055 7.11486 6.23437 8.95164 5.17505 11.119C4.24657 13.0186 3.81687 15.1056 3.91727 17.1955C3.94067 17.6826 4.39223 18.0339 4.88279 17.9788C5.3651 17.9247 5.70326 17.4975 5.68461 17.0185C5.61536 15.2407 5.98852 13.4682 6.77838 11.8521C7.69602 9.97467 9.13935 8.38357 10.9446 7.25936C12.7498 6.13515 14.8447 5.52286 16.9915 5.49195C19.1383 5.46104 21.2511 6.01276 23.0901 7.08449C24.9292 8.15623 26.4208 9.70508 27.3958 11.5553C28.3708 13.4055 28.7902 15.483 28.6062 17.5521C28.4223 19.6211 27.6425 21.5989 26.3552 23.261C25.2413 24.6992 23.7861 25.8513 22.1177 26.623C21.6865 26.8224 21.4675 27.3132 21.645 27.7547Z" fill="black"/>
<path d="M1.00032 16.4891L3.43446 20.7614L7.62983 18.7528" stroke="black" stroke-linecap="round" stroke-linejoin="round"/>
</svg>
