<svg width="62" height="62" viewBox="0 0 62 62" fill="none" xmlns="http://www.w3.org/2000/svg">
<path d="M30.875 0C24.7685 0 18.7991 1.81079 13.7218 5.20337C8.64441 8.59596 4.68709 13.418 2.35023 19.0596C0.0133776 24.7013 -0.59805 30.9092 0.593268 36.8984C1.78459 42.8876 4.72514 48.389 9.04309 52.7069C13.361 57.0248 18.8624 59.9654 24.8516 61.1567C30.8408 62.348 37.0487 61.7366 42.6904 59.3998C48.332 57.0629 53.154 53.1056 56.5466 48.0282C59.9392 42.9508 61.75 36.9815 61.75 30.875C61.75 26.8204 60.9514 22.8056 59.3998 19.0596C57.8482 15.3137 55.5739 11.9101 52.7069 9.04307C49.8399 6.17607 46.4363 3.90183 42.6904 2.35022C38.9444 0.798605 34.9296 0 30.875 0ZM24.7 40.1375C24.7 40.9563 24.3747 41.7417 23.7957 42.3207C23.2167 42.8997 22.4314 43.225 21.6125 43.225C20.7937 43.225 20.0083 42.8997 19.4293 42.3207C18.8503 41.7417 18.525 40.9563 18.525 40.1375V21.6125C18.525 20.7936 18.8503 20.0083 19.4293 19.4293C20.0083 18.8503 20.7937 18.525 21.6125 18.525C22.4314 18.525 23.2167 18.8503 23.7957 19.4293C24.3747 20.0083 24.7 20.7936 24.7 21.6125V40.1375ZM43.225 40.1375C43.225 40.9563 42.8997 41.7417 42.3207 42.3207C41.7417 42.8997 40.9564 43.225 40.1375 43.225C39.3186 43.225 38.5333 42.8997 37.9543 42.3207C37.3753 41.7417 37.05 40.9563 37.05 40.1375V21.6125C37.05 20.7936 37.3753 20.0083 37.9543 19.4293C38.5333 18.8503 39.3186 18.525 40.1375 18.525C40.9564 18.525 41.7417 18.8503 42.3207 19.4293C42.8997 20.0083 43.225 20.7936 43.225 21.6125V40.1375Z" fill="black"/>
</svg>
