<svg width="47" height="41" viewBox="0 0 47 41" fill="none" xmlns="http://www.w3.org/2000/svg">
<path d="M39.7167 0.159583C38.4556 0.487597 38.4759 0.469867 34.7637 3.68794L32.1396 5.94858L35.6587 8.99821C37.5911 10.6737 39.2082 12.0479 39.259 12.0479C39.4218 12.0479 44.9952 7.15425 45.3512 6.70212C45.8089 6.10815 46.0835 5.39007 46.1445 4.53901C46.2767 2.87234 45.2393 1.3032 43.4798 0.496462C42.3814 -0.00885582 40.8863 -0.141834 39.7167 0.159583Z" fill="black" fill-opacity="0.75"/>
<path d="M20.5648 11.0198C16.7508 14.3531 13.5877 17.19 13.5267 17.323C13.303 17.8371 13.7301 18.3425 14.4116 18.3425H14.8489L21.3072 12.713C24.8567 9.61908 27.796 7.08362 27.8367 7.08362C27.8774 7.08362 28.2435 7.37617 28.6504 7.72192L29.3928 8.36021L17.6153 18.6261C11.1468 24.2733 5.83777 28.9275 5.81743 28.963C5.80726 28.9985 7.36336 30.3903 9.27543 32.057L12.7639 35.0889L21.2258 27.7573C25.884 23.7236 31.2133 19.096 33.0746 17.4825L36.4613 14.5393L37.1224 15.0978C37.4886 15.4081 37.8852 15.7006 38.0073 15.7627C38.6684 16.0641 39.36 15.7006 39.36 15.0535C39.36 14.6191 39.5939 14.8407 32.8203 8.92759C28.4164 5.08895 28.2537 4.95597 27.8876 4.95597C27.5113 4.95597 27.2977 5.12441 20.5648 11.0198Z" fill="black" fill-opacity="0.75"/>
<path d="M4.19028 30.3279C4.12925 30.39 3.91567 30.7801 3.71226 31.1967C3.50885 31.6134 3.28509 32.0655 3.20373 32.2162C3.00032 32.6329 2.6952 33.2801 2.1765 34.4325C1.92224 35.0176 1.64763 35.6116 1.56627 35.7623C0.986545 36.9059 0 39.2995 0 39.5832C0 39.796 0.52887 40.2393 0.783134 40.2393C0.925522 40.2393 2.10531 39.9024 2.5935 39.7162C2.70537 39.6719 3.41731 39.4325 4.16993 39.1754C5.64467 38.6701 5.9803 38.5549 6.45831 38.3776C6.63121 38.3155 7.49571 38.0141 8.39072 37.6949C10.4655 36.968 11.2893 36.6222 11.3605 36.4627C11.4216 36.3208 10.7096 35.6737 6.72275 32.2074C5.4616 31.1169 4.40386 30.2216 4.36317 30.2216C4.33266 30.2216 4.2513 30.2747 4.19028 30.3279Z" fill="black" fill-opacity="0.75"/>
</svg>
