<svg width="61" height="59" viewBox="0 0 61 59" fill="none" xmlns="http://www.w3.org/2000/svg">
<g filter="url(#filter0_d)">
<ellipse cx="30.5" cy="25.5" rx="26.5" ry="25.5" fill="#F2922F" fill-opacity="0.75"/>
<path d="M39.6809 14.8456C39.0003 15.0203 39.0113 15.0109 37.0079 16.725L35.5918 17.9291L37.4909 19.5534C38.5337 20.4458 39.4065 21.1777 39.4339 21.1777C39.5217 21.1777 42.5295 18.5712 42.7216 18.3304C42.9686 18.014 43.1168 17.6316 43.1498 17.1783C43.2211 16.2905 42.6613 15.4548 41.7117 15.0251C41.1189 14.7559 40.3121 14.6851 39.6809 14.8456Z" fill="black" fill-opacity="0.75"/>
<path d="M29.3454 20.6302C27.2871 22.4056 25.5801 23.9166 25.5472 23.9875C25.4264 24.2613 25.657 24.5305 26.0247 24.5305H26.2607L29.7461 21.5321C31.6616 19.8841 33.2479 18.5336 33.2698 18.5336C33.2918 18.5336 33.4894 18.6895 33.7089 18.8736L34.1096 19.2136L27.7537 24.6816C24.2628 27.6894 21.3977 30.1685 21.3867 30.1873C21.3813 30.2062 22.221 30.9476 23.2529 31.8353L25.1355 33.4502L29.7022 29.5452C32.216 27.3967 35.0921 24.9318 36.0965 24.0725L37.9243 22.5048L38.281 22.8023C38.4786 22.9675 38.6927 23.1233 38.7585 23.1564C39.1153 23.3169 39.4885 23.1233 39.4885 22.7786C39.4885 22.5473 39.6148 22.6653 35.9593 19.5158C33.5827 17.4712 33.4949 17.4004 33.2973 17.4004C33.0942 17.4004 32.9789 17.4901 29.3454 20.6302Z" fill="black" fill-opacity="0.75"/>
<path d="M20.5084 30.9142C20.4755 30.9473 20.3602 31.1551 20.2505 31.377C20.1407 31.5989 20.0199 31.8397 19.976 31.92C19.8662 32.1419 19.7016 32.4866 19.4217 33.1005C19.2844 33.4121 19.1362 33.7285 19.0923 33.8088C18.7795 34.4179 18.2471 35.6928 18.2471 35.8439C18.2471 35.9573 18.5325 36.1934 18.6697 36.1934C18.7465 36.1934 19.3832 36.0139 19.6467 35.9148C19.7071 35.8912 20.0913 35.7637 20.4974 35.6267C21.2933 35.3576 21.4744 35.2962 21.7324 35.2018C21.8257 35.1687 22.2923 35.0082 22.7753 34.8382C23.895 34.451 24.3395 34.2668 24.378 34.1818C24.4109 34.1063 24.0267 33.7616 21.8751 31.9153C21.1945 31.3345 20.6237 30.8576 20.6017 30.8576C20.5853 30.8576 20.5414 30.8859 20.5084 30.9142Z" fill="black" fill-opacity="0.75"/>
</g>
<defs>
<filter id="filter0_d" x="0" y="0" width="61" height="59" filterUnits="userSpaceOnUse" color-interpolation-filters="sRGB">
<feFlood flood-opacity="0" result="BackgroundImageFix"/>
<feColorMatrix in="SourceAlpha" type="matrix" values="0 0 0 0 0 0 0 0 0 0 0 0 0 0 0 0 0 0 127 0"/>
<feOffset dy="4"/>
<feGaussianBlur stdDeviation="2"/>
<feColorMatrix type="matrix" values="0 0 0 0 0 0 0 0 0 0 0 0 0 0 0 0 0 0 0.25 0"/>
<feBlend mode="normal" in2="BackgroundImageFix" result="effect1_dropShadow"/>
<feBlend mode="normal" in="SourceGraphic" in2="effect1_dropShadow" result="shape"/>
</filter>
</defs>
</svg>
