<svg width="38" height="33" viewBox="0 0 38 33" fill="none" xmlns="http://www.w3.org/2000/svg">
<path d="M32.6991 0.130858C31.6608 0.39986 31.6776 0.38532 28.6213 3.02445L26.4609 4.87838L29.3581 7.37938C30.9491 8.75347 32.2805 9.88037 32.3223 9.88037C32.4563 9.88037 37.0449 5.86715 37.338 5.49636C37.7148 5.00925 37.9409 4.42035 37.9911 3.7224C38.1 2.35558 37.2459 1.06873 35.7973 0.407131C34.893 -0.00727749 33.6621 -0.116333 32.6991 0.130858Z" fill="black"/>
<path d="M16.9305 9.03791C13.7905 11.7716 11.1864 14.0981 11.1361 14.2071C10.9519 14.6288 11.3036 15.0432 11.8646 15.0432H12.2247L17.5418 10.4265C20.4641 7.8892 22.884 5.80989 22.9175 5.80989C22.951 5.80989 23.2525 6.04981 23.5874 6.33335L24.1987 6.85681L14.5023 15.2759C9.17677 19.9071 4.80585 23.724 4.7891 23.7531C4.78073 23.7821 6.06186 24.9236 7.63606 26.2904L10.5081 28.7769L17.4748 22.7643C21.3098 19.4563 25.6975 15.6612 27.2298 14.338L30.0182 11.9242L30.5624 12.3823C30.8639 12.6367 31.1904 12.8766 31.2909 12.9275C31.8352 13.1747 32.4046 12.8766 32.4046 12.3459C32.4046 11.9897 32.5972 12.1714 27.0205 7.32211C23.3948 4.17406 23.2608 4.06501 22.9594 4.06501C22.6496 4.06501 22.4737 4.20314 16.9305 9.03791Z" fill="black"/>
<path d="M3.44984 24.8723C3.3996 24.9232 3.22376 25.243 3.05629 25.5848C2.88882 25.9265 2.70461 26.2972 2.63762 26.4208C2.47015 26.7625 2.21895 27.2933 1.79191 28.2384C1.58257 28.7183 1.35649 29.2054 1.2895 29.329C0.81222 30.2668 0 32.2298 0 32.4625C0 32.637 0.435417 33.0005 0.644752 33.0005C0.76198 33.0005 1.73329 32.7242 2.13522 32.5715C2.22733 32.5352 2.81346 32.3389 3.4331 32.128C4.64724 31.7136 4.92356 31.6191 5.31711 31.4737C5.45946 31.4228 6.1712 31.1756 6.90806 30.9139C8.61623 30.3177 9.29448 30.0342 9.35309 29.9033C9.40333 29.787 8.8172 29.2563 5.53482 26.4136C4.49652 25.5193 3.62568 24.785 3.59219 24.785C3.56707 24.785 3.50008 24.8286 3.44984 24.8723Z" fill="black"/>
</svg>
