<svg width="50" height="48" viewBox="0 0 50 48" fill="none" xmlns="http://www.w3.org/2000/svg">
<path d="M9.86243 0.688227C9.37779 1.22346 8.50544 3.56827 6.32456 10.2459L3.41671 19.1154H2.4959C1.23583 19.1154 0.630033 19.4977 0.218088 20.5427C-0.0726961 21.2818 -0.0726961 21.5367 0.218088 22.2758C0.411944 22.7601 0.775425 23.2698 1.04198 23.4228C1.35699 23.6012 3.22286 23.7031 5.81568 23.7031H10.0805L10.6621 23.0405C11.5102 22.0719 11.486 20.8231 10.5652 19.8546C10.0805 19.3703 9.59588 19.1154 9.11124 19.1154C8.6993 19.1154 8.36005 19.0135 8.36005 18.9115C8.36005 18.8096 8.6266 17.9175 8.91738 16.9235L9.49895 15.1649L13.5942 15.0885L17.7136 15.0375L18.3436 17.0765L18.9737 19.1154H18.1256C17.5198 19.1154 17.0836 19.3193 16.5747 19.8546C15.6781 20.7976 15.6539 21.868 16.502 22.913L17.132 23.7031H21.4453C25.6617 23.7031 25.8071 23.6776 26.4614 23.0914C26.9945 22.6072 27.1399 22.2758 27.1399 21.4348C27.1399 20.033 26.4371 19.3193 24.9105 19.1154L23.7474 18.988L20.8153 10.093C18.4406 2.88012 17.7621 1.07053 17.229 0.586277C16.6232 0.0510464 16.3566 7.24792e-05 13.5457 7.24792e-05C10.5409 7.24792e-05 10.4925 7.24792e-05 9.86243 0.688227ZM15.1692 7.44232L16.1143 10.1949H13.6911C12.3583 10.1949 11.2679 10.093 11.2679 9.99104C11.2679 9.81263 12.431 6.0915 12.843 4.89361C12.9157 4.68971 13.2307 4.58776 13.6184 4.63873C14.2 4.7152 14.3454 4.97007 15.1692 7.44232Z" fill="black"/>
<path d="M30.3627 3.03221C29.2722 4.0517 29.2722 5.37703 30.3869 6.42201L31.1623 7.16113L39.8616 7.08467L48.5852 7.00821L49.2152 6.34554C50.136 5.35155 50.0875 3.94975 49.094 3.00673L48.3428 2.29309H39.7405H31.1381L30.3627 3.03221Z" fill="black"/>
<path d="M30.2416 17.3822C29.9751 17.7135 29.66 18.2233 29.5873 18.5291C29.3693 19.2428 29.9751 20.772 30.6051 21.1288C30.9443 21.3072 33.9733 21.4092 39.6194 21.4092C48.973 21.4092 49.2638 21.3582 49.7484 19.9054C50.0634 18.9879 49.8938 18.1468 49.2395 17.3822L48.7549 16.8215H39.7406H30.7263L30.2416 17.3822Z" fill="black"/>
<path d="M1.45385 28.7736C0.629959 29.1559 0.0726221 29.9969 0.04839 30.9909C0.024158 31.7301 0.16955 32.0614 0.799583 32.6476L1.57501 33.3867H24.9589H48.3428L49.1182 32.6476C50.136 31.7046 50.1602 30.3538 49.2152 29.3343L48.5851 28.6716L25.2497 28.6206C12.431 28.5951 1.7204 28.6716 1.45385 28.7736Z" fill="black"/>
<path d="M1.01775 43.3533C0.751193 43.5062 0.411944 44.016 0.218088 44.5002C-0.0726961 45.2393 -0.0726961 45.4942 0.218088 46.2333C0.411944 46.7176 0.775425 47.2273 1.04198 47.3803C1.74471 47.7626 48.1733 47.7626 48.876 47.3803C49.1425 47.2273 49.506 46.7176 49.6999 46.2333C49.9907 45.4942 49.9907 45.2393 49.6999 44.5002C49.506 44.016 49.1425 43.5062 48.876 43.3533C48.1733 42.971 1.64778 42.971 1.01775 43.3533Z" fill="black"/>
</svg>
