<svg width="349" height="336" viewBox="0 0 349 336" fill="none" xmlns="http://www.w3.org/2000/svg">
<path d="M148.386 1.83527C127.667 4.95288 102.158 13.4975 87.3073 22.3886C60.7199 38.3232 44.5519 52.9876 28.8629 75.3885C23.5933 82.8939 13.1739 102.408 11.2577 108.528C2.87431 134.277 0 149.519 0 167.994C0 204.251 13.2937 242.355 35.5696 270.183C41.3183 277.342 58.5641 294.547 65.2709 299.743C68.5045 302.283 90.3013 316.37 90.9002 316.37C91.1397 316.37 95.8104 318.449 101.32 320.874C123.595 330.919 147.907 336 174.135 336C210.903 336 242.879 326.532 273.659 306.556C283.719 299.974 302.402 283.347 308.869 275.033C309.587 274.225 310.905 272.608 311.863 271.569C326.953 255.519 341.205 223.303 346.594 193.512C351.025 168.571 348.75 142.36 339.888 116.264C327.193 78.737 302.402 47.6761 268.149 26.3145C260.125 21.3494 241.562 12.3429 235.215 10.3799C202.879 0.334167 176.052 -2.20612 148.386 1.83527ZM195.693 9.57162C197.37 9.91803 201.441 10.4954 204.675 10.8418C214.975 12.1119 235.334 18.6936 233.777 20.3102C233.538 20.5411 231.143 19.7328 228.508 18.5781C225.993 17.308 220.963 16.0378 217.609 15.576C211.502 14.7677 211.262 14.8831 211.262 17.5389C211.262 19.04 210.543 21.003 209.825 21.8112C207.549 24.0051 213.657 28.7393 217.609 28.0465C219.645 27.7001 221.442 28.2775 223.119 29.894C225.873 32.5498 227.55 32.8962 228.628 31.1642C229.706 29.5476 227.191 25.6217 224.436 24.8134C222.041 24.1206 220.963 19.6173 223.238 19.6173C223.957 19.6173 224.436 20.3102 224.436 21.1184C224.436 23.0814 231.861 26.7764 234.257 25.9681C235.334 25.5062 236.532 25.7372 237.011 26.43C237.37 27.1228 236.772 27.7001 235.574 27.8156C233.658 27.8156 233.658 27.9311 235.813 28.8548L238.209 29.894L235.813 30.0095C233.658 30.1249 233.538 30.1249 235.574 31.2796C239.287 33.3581 237.73 34.3973 230.903 34.1663C225.394 34.0509 223.837 33.4735 222.16 31.2796C220.843 29.6631 219.645 29.0857 219.286 29.7785C218.807 30.3559 219.286 31.5106 220.244 32.3188C222.759 34.2818 222.52 35.7829 219.645 35.7829C218.328 35.7829 217.25 36.4757 217.25 37.3994C217.25 38.3232 215.693 39.7088 213.657 40.6325C211.741 41.4408 210.064 42.5955 210.064 43.1729C210.064 43.6347 209.226 43.8657 208.268 43.5193C207.31 43.0574 206.232 43.2883 205.873 43.8657C205.394 44.5585 206.112 45.0203 207.19 45.0203C210.064 45.0203 213.657 48.3689 213.657 51.0247C213.657 52.7567 212.699 53.1031 206.591 53.1031H199.525L199.765 57.4909C200.364 64.6499 201.561 66.9593 204.675 66.9593C209.226 66.9593 209.945 71.4625 205.873 74.5802C203.717 76.1967 202.28 78.6216 201.801 81.6237C201.202 85.0878 200.244 86.3579 197.37 87.7435C195.334 88.6673 192.699 90.9766 191.501 92.9396C183.956 105.179 183.477 106.218 184.914 107.95C186.95 110.26 186.95 120.652 184.914 122.961C183.836 124.231 183.717 125.155 184.675 126.079C185.393 126.772 185.633 128.042 185.273 128.966C184.794 130.005 186.711 132.545 189.944 135.432C192.938 138.088 195.693 141.667 196.172 143.284C196.651 145.362 197.968 146.632 199.885 147.094C201.561 147.556 202.879 148.249 202.879 148.826C202.879 149.404 204.915 151.02 207.43 152.406C211.502 154.715 212.34 154.831 217.49 153.56C220.604 152.868 224.196 152.521 225.514 152.983C226.951 153.329 231.742 152.521 236.532 151.02L245.035 148.364L247.67 151.597C249.706 153.907 251.263 154.715 254.616 154.715C260.006 154.715 260.964 156.793 259.766 166.839C259.167 172.497 259.407 174.46 260.844 175.73C266.832 181.619 270.784 200.209 266.952 204.366C265.994 205.406 264.078 209.216 262.76 212.911C260.844 218.338 260.724 220.07 261.802 222.148C262.76 223.65 263.359 231.501 263.479 243.626C263.598 258.752 263.958 262.562 265.155 262.331C266.113 262.1 269.467 261.523 272.7 260.83C275.934 260.253 280.246 258.405 282.281 256.789C287.192 252.863 294.737 244.087 295.695 241.316C296.054 240.161 297.372 238.776 298.569 238.429C301.084 237.737 303.001 234.157 304.078 228.268C304.677 225.612 306.833 222.264 309.947 219.146C312.821 216.375 315.815 212.911 316.654 211.41C317.372 209.909 318.57 202.057 319.049 194.09C319.648 185.545 320.725 177.924 321.803 175.499C322.761 173.305 325.157 168.109 326.953 163.952C329.708 157.948 330.426 154.369 330.786 145.709C331.025 139.935 330.905 135.085 330.546 135.085C330.067 135.085 328.39 135.894 326.833 136.933C324.079 138.665 323.839 138.665 323.121 136.702C322.043 133.469 318.929 127.811 317.013 125.848C315.336 124.116 312.582 119.382 308.749 111.992C305.875 106.103 305.755 105.988 300.246 98.1357C294.857 90.5148 294.617 90.0529 296.054 90.0529C297.491 90.0529 309.468 105.757 309.468 107.72C309.468 108.759 310.067 109.913 310.665 110.26C313.061 111.645 318.091 120.306 319.767 125.963C320.725 129.081 322.043 131.621 322.642 131.621C323.24 131.621 324.917 130.005 326.354 128.042C328.63 124.924 328.869 123.423 328.271 115.687L327.672 106.796L331.265 116.611C337.492 133.931 339.648 147.325 339.768 167.994C339.768 189.471 337.852 201.249 331.384 219.146C322.163 245.242 309.468 264.294 288.629 283.808C276.533 295.124 260.724 305.747 246.113 312.56C232.939 318.564 226.472 319.95 204.675 321.566C194.495 322.259 183.237 323.876 173.537 325.723C161.8 328.033 150.063 327.455 143.835 324.107C140.961 322.49 136.769 320.874 134.494 320.527C130.661 319.719 130.542 319.834 132.697 321.566C139.644 326.763 113.056 317.756 94.493 308.634C69.4626 296.163 40.1206 267.296 27.4257 242.471C25.6293 239.007 23.4736 234.85 22.6352 233.233C19.2819 227.114 13.2937 207.83 11.138 196.399C8.02412 180.118 8.14389 156.101 11.138 139.704C13.653 126.887 17.0064 116.264 17.1261 120.883C17.2459 122.384 17.7249 123.539 18.3237 123.539C18.9226 123.539 19.7609 124.924 20.24 126.656C20.5992 128.388 21.5573 130.12 22.1562 130.467C22.755 130.929 23.7131 133.931 24.4317 137.164C25.8688 144.554 27.9048 147.21 30.0605 144.438C32.336 141.436 33.2941 143.977 33.0546 151.713C32.9348 156.678 32.0965 160.373 30.5396 163.029C28.6234 166.031 28.1443 168.918 28.1443 175.846C28.2641 184.968 29.9408 190.51 36.408 202.288C37.7254 204.597 38.8032 207.369 38.8032 208.292C38.8032 209.216 41.3183 211.872 44.3123 214.297C51.8574 220.301 52.576 221.917 58.0851 243.048C58.6839 245.588 60.2408 249.745 61.5582 252.401C62.7558 254.941 64.672 259.907 65.8697 263.371C66.9475 266.835 68.6242 270.183 69.4626 270.876C70.4207 271.569 71.1393 272.723 71.1393 273.416C71.1393 274.109 72.8159 276.418 74.7321 278.497C76.7681 280.575 78.6843 283.231 79.0436 284.386C81.0796 290.506 101.439 305.055 105.032 302.861C105.631 302.514 104.433 301.475 102.397 300.667C97.6069 298.704 94.7326 295.933 94.2535 292.815C94.014 291.545 92.8164 289.697 91.499 288.774C89.942 287.734 89.1037 285.887 89.1037 283.462C89.1037 281.153 88.3851 279.421 87.3073 278.959C86.3492 278.612 85.5108 277.804 85.5108 277.227C85.5108 276.534 86.2294 276.303 87.1875 276.649C88.3851 277.111 88.7444 276.649 88.2654 275.033C87.9061 273.301 88.5049 272.608 90.7804 272.031C93.8942 271.338 95.0919 267.643 92.6966 266.142C90.6606 264.872 91.3792 263.486 94.1338 263.024C95.9302 262.793 97.2476 261.523 97.9662 259.214C98.565 257.251 100.002 253.902 101.2 251.593C102.637 248.937 103.236 246.166 102.757 243.51C102.158 240.046 102.637 239.353 106.11 237.159C108.266 235.889 111.619 234.388 113.416 233.926C115.811 233.349 117.368 231.848 118.685 228.961C121.44 222.379 121.799 220.532 121.799 212.68C121.799 208.754 122.158 205.521 122.757 205.521C123.595 205.521 127.188 200.44 130.781 194.321C131.739 192.704 131.979 190.164 131.62 187.739C131.021 184.737 130.063 183.698 127.667 183.236C125.871 182.889 122.997 181.273 121.32 179.772C119.284 177.809 116.29 176.769 111.499 176.192C107.787 175.73 104.673 174.922 104.673 174.345C104.673 173.19 97.3674 170.188 95.4511 170.65C94.6128 170.881 93.8942 170.534 93.8942 169.957C93.8942 169.38 92.9361 168.571 91.6187 168.225C90.0618 167.878 89.2235 166.262 88.6247 162.682C87.3073 154.946 82.6365 150.674 75.9298 151.136C73.6543 151.251 72.2171 150.327 70.1811 147.21C68.744 145.016 66.9475 143.168 66.3487 143.168C65.6301 143.168 65.1511 142.475 65.1511 141.667C65.1511 139.358 61.3187 137.857 55.9293 137.972C52.6957 137.972 50.7795 137.51 50.7795 136.702C50.7795 134.739 47.6657 133.931 45.989 135.432C44.7914 136.587 44.5519 136.356 45.2704 134.739C45.989 132.661 45.8692 132.661 42.1566 134.739C40.0009 136.009 37.9649 137.972 37.7254 139.242C37.0068 143.284 35.0906 144.554 33.4139 142.36C32.0965 140.743 31.6174 140.628 29.9408 141.898C28.3838 143.168 28.0246 142.937 27.306 140.282C26.8269 138.55 27.0664 134.508 27.9048 131.39C29.7012 123.885 29.5815 123.539 26.9467 123.539C24.9107 123.539 24.791 123.077 25.5095 120.306C26.1083 118.458 27.4257 115.456 28.5036 113.377C30.6593 109.221 30.7791 108.528 29.3419 108.528C28.7431 108.528 27.1862 110.375 25.7491 112.569C22.6352 117.65 20.24 117.881 21.3178 113.031C22.2759 108.066 30.7791 90.9766 33.1744 89.1292C34.2522 88.2054 35.6894 87.859 36.2882 88.2054C36.887 88.6673 37.9649 88.0899 38.5637 87.0507C39.2823 85.7806 40.4799 85.4342 42.2764 86.0115C44.9111 86.8198 45.51 88.3209 43.5938 89.4756C42.9949 89.822 42.3961 91.9004 42.3961 93.8633C42.3961 98.4821 44.1926 96.2882 46.1088 89.2446C46.8274 86.5889 48.6238 83.1248 50.061 81.7392C53.6538 78.0442 60.6001 72.7327 61.7977 72.7327C62.2768 72.7327 62.7558 72.0399 62.7558 71.1161C62.7558 69.1532 72.3369 60.0312 74.4926 60.0312C75.331 60.0312 76.8879 58.992 78.0855 57.6064C80.361 54.9506 84.4329 52.6412 89.1037 51.4865C91.499 50.7937 91.7385 50.9092 90.3013 51.9484C87.5468 53.9114 95.0919 51.9484 98.0859 49.9855C100.361 48.4844 100.242 48.3689 97.2476 49.1772C94.3733 49.7545 93.8942 49.5236 93.8942 47.4452C93.8942 45.9441 94.6128 45.0203 96.05 45.0203C97.7266 45.0203 97.8464 44.7894 96.2895 43.8657C94.8523 42.9419 94.8523 42.711 96.7685 42.0182C98.0859 41.5563 99.2836 41.7872 100.002 42.8264C100.601 43.7502 101.08 43.8657 101.08 43.1729C101.08 41.9027 108.745 39.7088 111.14 40.2861C113.535 40.748 115.691 37.5149 114.973 34.2818C114.613 32.4343 114.853 29.894 115.571 28.6239C116.769 26.5454 116.649 26.43 114.254 27.7001C111.14 29.3167 109.823 28.3929 111.859 25.9681C113.056 24.467 112.937 24.2361 110.781 24.2361C108.625 24.2361 100.361 29.2012 89.942 37.053C86.4689 39.5933 84.0737 39.5933 87.3073 36.9376C88.2654 36.1293 89.1037 34.7437 89.1037 33.7045C89.1037 32.7807 90.0618 31.2796 91.2594 30.3559C95.0919 27.3537 104.553 23.0814 107.188 23.0814C108.745 23.0814 110.781 22.3886 111.739 21.5803C113.895 19.7328 123.116 16.1533 125.392 16.1533C127.548 16.2688 121.2 19.5019 118.805 19.6173C116.529 19.6173 115.811 22.5041 117.847 23.6587C118.565 24.0051 119.044 23.8897 119.044 23.1969C119.044 22.5041 119.763 22.2731 120.721 22.6195C121.679 22.9659 122.997 22.2731 123.835 20.772C124.554 19.5019 125.631 18.6936 126.23 19.04C126.949 19.3864 128.386 19.1555 129.464 18.5781C130.661 17.8853 131.141 17.308 130.661 17.308C130.063 17.308 131.141 16.0378 133.057 14.5367C136.051 12.1119 147.788 9.22522 147.788 10.8418C147.788 11.9965 143.716 16.1533 142.518 16.1533C140.841 16.1533 135.811 21.003 135.811 22.6195C135.811 23.3123 137.129 24.3515 138.805 24.6979C140.961 25.2753 143.117 24.467 146.71 21.9267C149.464 20.0792 152.698 18.4627 153.896 18.4627C155.093 18.4627 157.249 18.0008 158.806 17.4235C160.363 16.7307 164.195 15.9224 167.309 15.576C171.62 14.9986 172.938 14.4213 172.459 13.1511C172.1 12.2274 172.339 11.5346 172.938 11.5346C173.656 11.5346 174.135 10.7263 174.135 9.68707C174.135 8.07053 175.453 7.95508 183.477 8.41693C188.507 8.64789 194.016 9.22522 195.693 9.57162ZM247.071 53.565C250.664 55.297 256.053 59.3384 259.047 62.456C264.557 68.114 267.551 69.6151 267.551 66.3819C267.551 65.4582 266.832 64.6499 265.874 64.6499C264.078 64.6499 262.521 61.8787 263.598 60.724C265.275 59.1075 267.431 60.2621 270.066 63.9571C273.539 68.9222 276.413 70.1924 282.281 69.846C286.114 69.4996 286.952 69.9615 288.389 72.5017C289.228 74.2338 290.425 77.2359 290.785 79.0834L291.623 82.6629L285.874 82.432C279.647 82.0856 273.419 80.2381 272.221 78.2751C271.742 77.5823 270.545 77.3514 269.467 77.6978C268.03 78.2751 267.67 79.3144 268.269 81.3928C268.988 84.2795 267.311 85.4342 265.754 83.1248C265.395 82.432 264.078 81.9701 262.88 81.9701C261.682 81.9701 259.766 80.9309 258.568 79.6608C257.371 78.3906 254.976 77.3514 253.299 77.3514C249.586 77.2359 245.993 74.9266 245.993 72.3863C245.993 68.4604 243.239 67.5366 233.298 68.2294C228.149 68.5758 222.16 69.6151 220.124 70.4233C216.292 72.0399 210.064 71.2316 210.064 69.2686C210.064 68.5758 211.382 68.114 213.058 68.114C216.891 68.114 221.202 64.419 220.124 61.9941C219.765 60.8395 220.364 59.5693 221.921 58.6456C223.358 57.8373 224.436 56.2207 224.436 55.1815C224.436 53.7959 225.394 53.2186 227.789 53.334C229.586 53.4495 231.861 53.1031 232.939 52.6412C234.257 52.0639 235.813 52.6412 237.131 54.0269C238.448 55.297 242.041 57.3754 245.275 58.761C251.981 61.5323 251.981 61.5323 251.981 60.0312C251.981 59.3384 250.664 58.2992 248.987 57.7218C245.155 56.3362 238.808 51.8329 238.808 50.4473C238.808 49.2927 238.568 49.1772 247.071 53.565Z" fill="black"/>
</svg>
