<svg width="254" height="287" viewBox="0 0 254 287" fill="none" xmlns="http://www.w3.org/2000/svg">
<path d="M127.054 0.756958C145.482 3.3923 164.261 10.9619 178.991 21.7276C183.862 25.26 193.428 34.1754 197.418 38.8853C207.923 51.1649 216.08 66.7527 220.012 82.0601C222.594 92.209 223.592 108.75 222.242 119.123L221.773 122.543L238.146 150.467C247.125 165.774 254.285 178.558 253.991 178.783C253.757 179.063 246.01 181.306 236.796 183.829C227.583 186.296 219.602 188.483 219.073 188.651C218.076 188.932 218.017 190.782 218.017 217.248V245.507H193.956H169.895V266.254V287H164.613H159.331V261.488V235.975H183.686H208.04L208.158 208.669L208.334 181.362L223.592 177.157C231.984 174.858 238.968 172.895 239.026 172.839C239.144 172.783 232.923 161.849 225.118 148.616L211.033 124.562L211.914 117.89C213.44 107.18 212.501 94.1154 209.508 82.9011C197.36 37.7639 151.761 6.08371 104.402 9.89655C95.188 10.6255 87.1481 12.0833 80.3406 14.2701C49.648 24.0826 25.7043 46.6792 15.3756 75.6119C10.8568 88.2279 9.33101 101.124 9.91786 121.31C10.0939 128.094 10.6221 136.169 11.0916 139.253C14.9061 164.036 27.5822 187.418 46.5377 204.632C51.1738 208.893 58.2161 214.332 61.7372 216.406L63.087 217.191V252.068V287H58.0987H53.1105V254.871L53.0518 222.799L49.1198 219.995C47.0072 218.425 42.6057 214.78 39.378 211.865C19.1902 193.473 6.74884 171.157 1.40845 144.019C0.117371 137.458 0 135.664 0 115.983C0 98.3768 0.176056 94.0593 1.05634 89.3493C5.22301 66.8087 15.1409 48.2492 31.6315 31.9886C48.9438 14.943 71.1269 4.17731 96.0096 0.756958C103.521 -0.252319 119.836 -0.252319 127.054 0.756958Z" fill="black"/>
<path d="M125.88 37.4825V43.0896L127.64 43.426C128.579 43.6503 129.401 44.0428 129.401 44.3232C129.401 44.6035 129.636 44.7157 129.929 44.5474C130.575 44.1549 136.619 46.0614 136.208 46.5099C135.974 46.6781 136.267 46.8463 136.737 46.8463C138.262 46.8463 142.312 48.8649 141.901 49.4256C141.725 49.7621 141.784 49.8181 142.077 49.6499C142.429 49.4817 143.016 49.5378 143.485 49.8181C144.131 50.2106 145.422 49.3696 148.474 46.4539L152.582 42.5289L163.028 52.5095L173.415 62.4341L169.366 66.303L165.316 70.1719L167.84 74.994C170.422 79.9283 172.417 85.4793 171.948 86.2643C171.42 87.0493 173.415 87.3858 178.755 87.3858H183.979V101.684V115.926L178.286 116.094L172.652 116.262L171.713 119.627C171.185 121.477 169.601 125.178 168.251 127.869C166.901 130.561 165.786 132.916 165.786 133.196C165.786 133.42 167.547 135.327 169.718 137.401L173.709 141.214L163.439 151.026C157.805 156.409 152.934 160.839 152.582 160.839C152.288 160.839 150.528 159.381 148.65 157.643L145.246 154.447V156.241C145.246 158.428 143.955 161.063 141.842 163.194C140.551 164.54 140.375 165.212 140.316 168.913C140.258 172.558 140.023 173.343 138.497 175.53C137.441 176.931 135.622 178.445 134.096 179.23C131.455 180.464 131.279 180.52 110.563 180.352L89.6708 180.183L87.2646 178.557C83.7435 176.258 81.5722 171.885 82.0416 167.904C82.3351 165.212 82.2177 164.708 80.9266 163.586C79.1074 161.96 77.1707 158.091 77.1707 156.073C77.1707 154.447 77.112 154.447 73.6496 157.755L70.1285 161.119L59.8585 151.307C54.2247 145.924 49.5885 141.214 49.5885 140.822C49.5885 140.485 51.3491 138.691 53.4617 136.84L57.335 133.532L54.9876 129.103C52.6402 124.617 50.1754 118.337 50.1754 116.823C50.1754 116.15 49.119 115.982 44.3068 115.982H38.4382L38.5556 101.796L38.7317 87.6661L44.3655 87.4979L50.058 87.3297L50.4101 85.4233C50.9383 82.9561 53.8725 76.0594 55.8092 72.9194L57.335 70.4523L53.4617 66.6955C51.3491 64.6209 49.5885 62.7145 49.5885 62.4341C49.5885 62.0977 54.2247 57.4438 59.8585 52.061L70.1285 42.2485L74.1191 46.1735L78.051 50.0985L73.943 46.4539L69.835 42.8092L73.5909 46.566C77.7576 50.7153 77.0534 50.6592 83.5675 47.5753C85.6801 46.566 89.436 45.1642 91.9595 44.3792L96.537 42.9214V37.3703V31.8754H111.208H125.88V37.4825ZM102.288 70.9008C91.7248 73.8726 82.9806 81.8347 79.4008 91.7593C78.2858 94.7871 78.051 96.6936 78.051 101.684C78.051 106.674 78.2858 108.581 79.4008 111.608C81.9829 118.673 87.7341 125.514 94.1896 129.159L97.1238 130.841V136.84V142.896H101.525H105.927V128.934V115.029L103.051 113.347C95.6567 108.917 94.3656 98.1514 100.469 92.1518C106.161 86.5447 115.61 86.2643 121.713 91.479C122.476 92.1518 123.708 93.9461 124.471 95.5161C127.934 102.469 124.765 111.44 117.84 114.468L116.49 115.029V128.991V142.896H120.891H125.293V137.009V131.177L128.638 129.103C133.861 125.907 138.321 121.197 141.021 116.038C144.072 110.319 144.894 106.45 144.542 99.7214C143.603 82.2272 127.758 68.6019 109.624 69.7794C107.335 69.9476 103.99 70.4523 102.288 70.9008ZM108.45 98.7121C106.455 100.731 106.455 103.03 108.391 104.768C110.68 106.786 114.025 106.057 115.258 103.142C117.018 99.1607 111.502 95.5721 108.45 98.7121ZM87.7928 154.054C87.382 154.783 87.382 155.344 87.9102 156.017C88.5557 156.858 90.7858 156.914 111.443 156.802C131.983 156.634 134.331 156.521 134.859 155.68C135.328 155.008 135.269 154.503 134.741 153.886C134.037 153.101 131.22 152.989 111.15 152.989C89.5534 152.989 88.321 153.045 87.7928 154.054ZM92.605 167.904C92.429 168.409 92.4877 169.25 92.8398 169.754C93.368 170.539 95.598 170.651 111.091 170.82C126.525 170.932 128.814 170.82 129.636 170.035C130.34 169.362 130.399 168.913 129.988 168.072C129.401 167.063 128.521 167.007 111.15 167.007C94.8938 167.007 92.9572 167.119 92.605 167.904Z" fill="black"/>
<path d="M116.491 194.483V199.529H111.503H106.515V194.483V189.436H111.503H116.491V194.483Z" fill="black"/>
<path d="M116.491 212.986V218.032H111.503H106.515V212.986V207.939H111.503H116.491V212.986Z" fill="black"/>
<path d="M116.491 231.49V236.536H111.503H106.515V231.49V226.443H111.503H116.491V231.49Z" fill="black"/>
<path d="M116.491 249.994V255.04H111.503H106.515V249.994V244.947H111.503H116.491V249.994Z" fill="black"/>
</svg>
