<svg width="205" height="190" viewBox="0 0 205 190" fill="none" xmlns="http://www.w3.org/2000/svg">
<path d="M154.739 17.7816L143.486 28.0881L158.716 42.1189L158.716 42.119C163.006 46.074 166.946 49.6725 169.841 52.2818C171.289 53.5867 172.474 54.6428 173.31 55.372C173.728 55.7371 174.057 56.0175 174.286 56.2056C174.323 56.2367 174.358 56.2648 174.389 56.29C174.414 56.2717 174.441 56.2515 174.469 56.2294C174.681 56.0673 174.977 55.8244 175.35 55.508C176.094 54.8767 177.122 53.9695 178.344 52.8706C180.788 50.6739 183.997 47.7212 187.234 44.7006C190.471 41.6802 193.734 38.5938 196.286 36.1299C197.562 34.8978 198.659 33.8229 199.485 32.9904C200.322 32.147 200.851 31.5819 201.023 31.3494C202.995 28.6278 204.186 25.3298 204.451 21.3977L204.451 21.3942C205.022 13.7554 200.552 6.52479 192.896 2.79299L192.895 2.7927C188.125 0.459877 181.61 -0.155766 176.533 1.23511L176.463 1.25457C175.091 1.63384 174.099 1.90799 173.117 2.33171C172.127 2.75902 171.132 3.34521 169.785 4.36432C167.072 6.41754 162.997 10.1721 154.741 17.7806L154.739 17.7816Z" fill="black" stroke="black"/>
<path d="M91.6791 52.3974L91.6794 52.3971C106.635 38.4758 114.341 31.3245 118.518 27.6521C120.612 25.8114 121.796 24.8657 122.552 24.379C122.926 24.1382 123.175 24.0233 123.361 23.9653C123.538 23.91 123.68 23.8994 123.863 23.8994C124.049 23.8994 124.192 23.9086 124.35 23.9473C124.508 23.9863 124.703 24.0611 124.975 24.2155C125.531 24.5314 126.353 25.1475 127.767 26.3588C130.587 28.7732 135.647 33.4521 145.432 42.5191C146.591 43.5944 147.703 44.6267 148.771 45.6178C161.575 57.4982 168 63.4609 171.224 66.6699C172.981 68.419 173.745 69.3104 174.081 69.8741C174.239 70.1395 174.289 70.3126 174.309 70.4581C174.325 70.5806 174.324 70.6838 174.321 70.8365C174.32 70.9047 174.318 70.9828 174.318 71.077C174.318 72.4235 173.648 73.4495 172.672 73.9943C171.693 74.5405 170.368 74.6213 169.039 73.9809C168.808 73.8536 168.271 73.4665 167.563 72.904C166.859 72.3451 166.02 71.6402 165.215 70.9148L165.214 70.9143L162.278 68.2772L161.939 67.9728L161.605 68.2819L146.562 82.1787C144.092 84.4555 140.246 88.0031 135.515 92.3669C124.415 102.606 108.443 117.339 93.9363 130.693L93.9362 130.693L56.6917 164.998L41.5367 150.996C37.2915 147.062 33.4422 143.454 30.6604 140.808C29.2693 139.485 28.1466 138.404 27.3755 137.644C27.0037 137.278 26.7164 136.99 26.5209 136.785C26.7022 136.612 26.9563 136.372 27.2803 136.066C27.9891 135.398 29.0293 134.422 30.3653 133.172C33.0371 130.672 36.8906 127.076 41.6393 122.652C51.1366 113.805 64.2138 101.645 78.5785 88.313L91.6791 52.3974ZM91.6791 52.3974C83.2103 60.2658 75.4647 67.5479 69.803 72.9407C66.9719 75.6374 64.6631 77.8605 63.0459 79.4479C62.2369 80.242 61.6032 80.8748 61.1643 81.3274C60.9444 81.5542 60.7768 81.7323 60.6616 81.8613C60.6036 81.9262 60.5628 81.9743 60.5365 82.0075C60.5327 82.0123 60.5294 82.0164 60.5267 82.02C60.12 83.0488 60.317 84.0443 60.9252 84.7957C61.5467 85.5636 62.6266 86.1068 64.0092 86.1068H65.7555L94.2965 59.6594C102.18 52.3546 109.385 45.7088 114.643 40.889C117.272 38.4792 119.415 36.5252 120.912 35.1734C121.66 34.4977 122.248 33.9711 122.656 33.6129C122.859 33.4342 123.02 33.2951 123.135 33.1997C123.191 33.1526 123.241 33.1121 123.281 33.0819C123.3 33.0675 123.324 33.0496 123.35 33.0333C123.362 33.0256 123.384 33.0121 123.411 32.9986C123.414 32.9974 123.509 32.9456 123.637 32.9456C123.767 32.9456 123.87 32.9947 123.899 33.0084L123.901 33.0094C123.949 33.0318 123.995 33.059 124.036 33.0846C124.119 33.1366 124.217 33.2066 124.325 33.2874C124.541 33.4503 124.826 33.6806 125.156 33.9573C125.817 34.512 126.68 35.2699 127.586 36.0885L127.588 36.0904L130.886 39.1042L131.287 39.4708L130.889 39.8401L78.5787 88.3127L91.6791 52.3974Z" fill="black" stroke="black"/>
<path d="M28.5014 180.744L28.5014 180.744L28.5065 180.742C28.7707 180.642 29.4056 180.404 30.2875 180.075C31.953 179.453 34.4991 178.501 37.0904 177.519L37.0931 177.518C41.6997 175.802 44.9063 174.54 46.9978 173.615C48.0451 173.152 48.7994 172.779 49.3061 172.481C49.5599 172.332 49.7393 172.209 49.8586 172.109C49.8951 172.079 49.9227 172.053 49.9432 172.033C49.9407 172.028 49.9381 172.023 49.9352 172.018C49.8653 171.886 49.7222 171.68 49.4613 171.369C48.9439 170.754 48.0367 169.813 46.5518 168.366C43.5876 165.479 38.376 160.628 29.5209 152.444C26.721 149.87 24.1478 147.527 22.2527 145.829C21.3048 144.979 20.5285 144.292 19.9788 143.819C19.7034 143.582 19.4885 143.401 19.3388 143.281C19.3344 143.277 19.3301 143.274 19.3258 143.27C19.325 143.271 19.3243 143.271 19.3235 143.272C19.2128 143.346 19.0841 143.447 18.9709 143.55C18.9673 143.554 18.9623 143.561 18.9558 143.57C18.9406 143.59 18.9214 143.618 18.898 143.654C18.8511 143.726 18.7933 143.821 18.7253 143.939C18.5894 144.175 18.4211 144.486 18.231 144.854C17.8512 145.589 17.3916 146.534 16.9425 147.512C16.0445 149.468 15.0503 151.604 14.6798 152.335C13.7793 154.296 12.4272 157.345 10.1286 162.774C9.00391 165.526 7.78085 168.34 7.40533 169.082C6.12593 171.766 4.39335 175.925 2.97913 179.585C2.27189 181.415 1.64642 183.115 1.19848 184.438C0.974326 185.1 0.796315 185.663 0.674939 186.098C0.546773 186.558 0.5 186.815 0.5 186.902C0.5 186.991 0.567399 187.202 0.793367 187.522C1.0042 187.821 1.30527 188.149 1.64823 188.455C1.99073 188.76 2.36087 189.03 2.70239 189.221C3.05917 189.42 3.32608 189.5 3.47831 189.5C3.4781 189.5 3.47828 189.5 3.47888 189.5C3.48327 189.5 3.51011 189.498 3.56949 189.488C3.63105 189.478 3.71129 189.463 3.81027 189.441C4.00795 189.398 4.26491 189.335 4.56839 189.254C5.17448 189.094 5.95018 188.869 6.77656 188.617C8.43196 188.111 10.265 187.499 11.3283 187.068C11.6947 186.914 13.3665 186.31 15.4766 185.547C16.377 185.222 17.3573 184.867 18.35 184.507C24.9024 182.12 26.3858 181.579 28.5014 180.744ZM49.9752 172.107C49.9758 172.111 49.9763 172.112 49.9764 172.112C49.9765 172.112 49.9762 172.111 49.9752 172.107Z" fill="black" stroke="black"/>
</svg>
