<svg width="50" height="50" viewBox="0 0 26 23" fill="none" xmlns="http://www.w3.org/2000/svg">
<path d="M13.1398 0C6.06868 0 0.283203 5.175 0.283203 11.5C0.283203 17.825 6.06868 23 13.1398 23C20.211 23 25.9965 17.825 25.9965 11.5C25.9965 5.175 20.2753 0 13.1398 0ZM19.0547 16.6175C18.7975 16.9618 18.3476 17.0775 17.9611 16.8475C14.9398 15.18 11.1471 14.8343 6.64643 15.7543C6.19886 15.8714 5.81155 15.5825 5.68299 15.2375C5.55442 14.8343 5.87583 14.49 6.26153 14.375C11.1471 13.3968 15.3897 13.8 18.7325 15.64C19.1824 15.8125 19.2459 16.2718 19.0547 16.6175ZM20.5975 13.455C20.2753 13.8575 19.6967 14.03 19.2451 13.7425C15.7746 11.845 10.5034 11.27 6.45358 12.42C5.94012 12.535 5.36077 12.305 5.2322 11.845C5.10363 11.385 5.36077 10.8668 5.87503 10.7518C10.5677 9.4875 16.3532 10.1214 20.3387 12.305C20.7252 12.4782 20.9173 13.0525 20.5967 13.455H20.5975ZM20.726 10.235C16.6111 8.05 9.73282 7.82 5.81155 8.91322C5.16872 9.085 4.52589 8.74 4.33304 8.2225C4.14019 7.64678 4.52589 7.0725 5.10444 6.89928C9.66854 5.69178 17.1897 5.92178 21.9474 8.4525C22.5252 8.74 22.718 9.43 22.3966 9.9475C22.076 10.3507 21.3038 10.5218 20.726 10.235Z" fill="#05AD20"/>
</svg>
